<svg id="Calque_1" data-name="Calque 1" xmlns="http://www.w3.org/2000/svg" viewBox="0 0 450 370.75"><defs><style>.cls-1{fill:#fcded0;}.cls-2{fill:#ec9d8e;}.cls-3{fill:#fee5c2;}.cls-4{fill:#1b110f;}.cls-5{fill:#181613;}.cls-6{fill:#251d1c;}.cls-7{fill:#221816;}.cls-8{fill:#231f1d;}.cls-9{fill:#f8d6af;}.cls-10{fill:#f1cda3;}.cls-11{fill:#3d302a;}.cls-12{fill:#efcbbf;}.cls-13{fill:#dd8d7d;}.cls-14{fill:#fcecc9;}.cls-15{fill:#493e3b;}.cls-16{fill:#2d2b29;}.cls-17{fill:#4d423d;}.cls-18{fill:#f3cbbe;}.cls-19{fill:#f6cdbf;}.cls-20{fill:#efc6b9;}.cls-21{fill:#f7cec0;}.cls-22{fill:#facdc0;}.cls-23{fill:#efd9c9;}.cls-24{fill:#facec1;}.cls-25{fill:#f8d1c3;}.cls-26{fill:#fce1d2;}.cls-27{fill:#fde7d7;}.cls-28{fill:#f2d6c7;}.cls-29{fill:#fbe7d7;}.cls-30{fill:#d78979;}.cls-31{fill:#d68878;}.cls-32{fill:#d58878;}.cls-33{fill:#ea9a8b;}.cls-34{fill:#e08e7e;}.cls-35{fill:#d68979;}.cls-36{fill:#f1a293;}.cls-37{fill:#e18e7e;}.cls-38{fill:#e99a8c;}.cls-39{fill:#f4a191;}.cls-40{fill:#f1a091;}.cls-41{fill:#d28677;}.cls-42{fill:#f3a292;}.cls-43{fill:#f4a393;}.cls-44{fill:#f8cfa2;}.cls-45{fill:#fbd6ac;}.cls-46{fill:#fce6c3;}.cls-47{fill:#fff0cc;}.cls-48{fill:#443a2f;}.cls-49{fill:#ffefcb;}.cls-50{fill:#df8c7d;}.cls-51{fill:#e8c49a;}.cls-52{fill:#fbd5c7;}.cls-53{fill:#1d1d1b;}</style></defs><path class="cls-1" d="M346.13,134.78l.11,10.58c-2.9,20.3-2.12,40.82-1.06,61.07,1.22,23.49-4.54,40.79-25.25,49.57-.17,5.64,7.22,10.66,1.15,16.79a11.38,11.38,0,0,1-3.84,1.66c-10.51,1-21,.54-31.51.36-9.54-.16-16.27-4.65-18.52-15.61.13-7-4.32-10.29-8.89-13.44-11.07-7.62-16.08-18.95-16.07-33.08,0-16.74-.67-33.49.11-50.22,10-3.85,14-1.88,15.73,8.33,1.16,6.71.35,13.58.67,20.36.25,5.26-1,11,3.4,15.06,4.39-2.53,1.07-6.75,1.81-10.07a13.17,13.17,0,0,1,1-3.68c4.09-11.39.94-23.05,1.09-34.59,2.32-17-1.5-34.32,2.31-51.21a3.18,3.18,0,0,1,3.47-2.11c4.9,4.2,4,10.36,4.24,16,.46,12.07-.6,24.17.65,36.17,9.4,3.89,8.63-5.1,9.11-10,1.32-13.78.13-27.71.67-41.56.21-5.37-1.31-12.06,5.62-14.42a8.73,8.73,0,0,1,2.36,3.58c2.28,15.63.47,31.37,1.11,47.05.23,5.75-1,11.76,2.15,17,6.23,6.75,10.16-2.84,15.41-2.74,2-13.51-1.61-27.32,1.84-40.75a4.77,4.77,0,0,1,2.84-2.7,3.78,3.78,0,0,1,3.07,2.32c3.81,13.85-.25,28.3,2.6,42.18a7.87,7.87,0,0,0,2.62,2.13c8.17-.41,6.42-7.67,7-12.93,1-9.75-1.46-19.81,2-29.37a3.5,3.5,0,0,1,2.92-1.62c4.66,3.08,3,8.7,4.3,13.13a21.29,21.29,0,0,0,2.07,4.2A26.73,26.73,0,0,0,346.13,134.78Z"/><path class="cls-2" d="M282.21,74.71c.58,2,1.16,4,1.73,6-1,7.12-6.14,9.18-11.18,11.38-1.58-.55-2.71-2.75-4.77-1.65,2.69-.08,3.07,1.58,2.44,4-17.56,8.38-19.11,11.45-14.39,28.43.46,4.86,4.41,9.48.84,14.64-3.45,9.24-7.33,17.77-17.53,19.95-4.33.93-4.86,5.43-4.93,9.75-.3,19.89-.45,39.8.08,59.69.24,9.4,5.53,15.75,11.7,21.28,3.44,3.09,7.73,5.23,9.15,10.51,1.94,10.89-2.43,14.87-11.91,13.92-9.18-.92-18.59,1.47-27.59-2.28-8.77-6-10.63-15.55-10.65-25.94,0-17.72-.22-35.44.09-53.16.09-5.39.71-10.94-1.66-16.05-.41-.78-.66-1.89-1.29-2.25-20.91-11.83-23.22-32.47-21.58-55.24.55-7.62-.11-15.33.2-23,.2-4.82-.28-10.22,5.11-12.53,6.73,1,8.22,6.47,8.7,12.64a93.16,93.16,0,0,1-.4,20.24c-.54,3.53-1.76,6.9-2.43,10.43-.8,4.22,1.51.74,2.31,1.08,6.3-14.36,5.26-29.1.26-43.12-6.16-17.27-3.71-34.75-3.12-52.25.16-4.73,2.63-8.81,7.15-9.9,3.51-.85,7.56-1.44,7.87,4.79-3,15.75-.59,31.56-.93,47.34.91,1.77,2.9-.37,1.42.39-.58.3-1,.07-1-.7-1.69-15.09-.4-30.24-.67-45.33,6.94-4.56,5.91,2.92,6.32,5.91,1.27,9.43.27,19,.67,28.53.22,5.15-1.27,11.1,4.12,14.46a10.16,10.16,0,0,0,6.07-1.2c1.8-1,3.77-1.6,5.49-2.74-.35-13.67-.45-27.26-.3-40.86.06-4.94-.44-10.08,2.77-14.3,8.13.8,5.77,8.14,6.19,13.14,1.27,15-1.56,30.23,1.76,45.09a5.57,5.57,0,0,0,4.33-.52c3.26-1.68,4.87-6.05,8.78-6.68,4.51,1.38,3.39,7.25,6.38,9.76,1.83.87,3.48.31,5-.86a15.21,15.21,0,0,0,5.61-7.85c2.85-11.62-1.93-24.14,3.47-35.43,3.14-2,5.05.1,6.92,2.46C283,49,279.08,62.25,282.21,74.71Z"/><path class="cls-3" d="M164.09,85.27c.5-2.6-.21-5.8,2.85-7.14,4.1,4.25,3.38,9.94,3.47,15.26.2,12.21,1.1,24.56-.17,36.6-2.14,20.33,4.52,35.06,19.7,45.7,3.94,6.15.39,13.81,3.29,20.17,1.89,1.35,3.75,2.71,4.72,5.09a11.91,11.91,0,0,1-.27,8c-1.18,2.56-2.82,4.81-4,7.39-2.66,11.91-.58,24-1.23,36-.3,5.73.67,11.7-2.78,16.79-13.77,7.27-27.95,6.68-42.34,2.84-6.2-1.66-9.75-5.81-10.54-12.84.24-6.88-3.4-10.57-8.47-13.5-7.11-4.1-13-10.14-15.13-18.75a140.62,140.62,0,0,1-.73-65.34c5.13-3.37,9.62-2.3,13.61,2.35,5,12.93,1.14,26.62,2.76,39.79.38,1.36.84,2.7,2.48,2.62,1.89-1.79,2.11-4.47,3-6.79,5-10.81-.2-23.24,4.49-34.08A6.74,6.74,0,0,1,142.1,163c10.4-1.9,14-9.48,14-20.31.07-13.57-.24-27.16.2-40.72.17-5-1.14-11.2,4.89-13.9,4.47,11.69,1.29,23.91,1.91,35.86a268.63,268.63,0,0,1,.12,27.37C163.51,129.25,162.54,107.25,164.09,85.27Z"/><path class="cls-4" d="M196.41,200.52l-4.47-3.63c-3.84-5.84.41-13.08-2.65-19.06-16.43-7.09-24-20.11-23.2-40s.61-39.84.85-59.75c2.26-1.87,4.67-5.53,6.76-5.32,14.83,1.49,13.22-9.34,12.81-19.73-.25-6.31-.14-12.65,0-19,.25-15,4.57-20.68,18-20.81,5-.05,5.88-3.16,8.14-6.1,8.47-10.94,21.11-9.29,26.25,4.09,2.13,5.56,4.41,6.23,9.35,7.31,9,2,17,7.85,27.08,6.41,6.36-.91,7.2,7.08,9.56,12,2.35,10.88,1.39,21.81.48,32.75v0c-6.41,2.58-6.21-2.31-6.54-7-.6-8.71,1.56-17.58-1.25-26.16L272.62,34a19.25,19.25,0,0,0-5.4,7.63C264,54.3,269,67.94,263.3,80.25l-5.23,2.69c-6-7.53-5-17-5.91-26-.69-7,.87-14.23-1.35-21.09-2.72-3.35-4.85-2.9-6.42,1.29-2.06,14.32,2.93,29.35-3.83,43.08-9.4,5.82-8-2.68-8.24-8-.82-18.44,1.22-36.95-1.15-55.35a9.66,9.66,0,0,1-2.77-1.57c-6-3-6,1.86-6.41,6.18-.06,14.54.12,29-.05,43.52-.06,5.36.53,11-4,15-6.69,5.3-8.66,1.11-8.76-5.68C209,62.18,209.25,50,209,37.9c-.07-4.25,1.52-9.13-2.56-12.46l0,0c-8-6.83-12-1.22-11.61,6.56.81,17.68-3.33,35.43,4.59,53.17,5.53,12.41,1.91,27.75,1,41.69-.46,7.21-4.93,5.48-8.56,1.76-2.63-3.27-2-6.69-.4-10.17.17-8.38.12-16.78.6-25.14.3-5.19-2-8.06-5.67-10.23-4.69-1.93-6.6,1.57-8.37,5.34,0,20.91-2.12,41.84,1.4,62.61,2.48,7.19,7,12.55,13.68,14,12.47,2.75,13.14,11.75,11.23,22.88-.76,4.45-1.32,8.87-4.41,12.24A2.75,2.75,0,0,1,196.41,200.52Z"/><path class="cls-5" d="M132.55,210.8c-1.67,1.47-3.25,1.55-4.71-.35-3-10.87-.39-22-1.39-33-.38-4.12,2-8.86-1.92-12.3-3.47-2.78-7.11-4.76-11.54-3.05-4.43,22.3-3.83,44.7.07,66.89,1.61,9.14,8.7,13.92,16.29,16.93,4.78,1.89,9.48,3.51,9.25,10.62-2.85,8.18,3.13,18.55-5.12,25.37-8.62,3.42-7.86-3.93-7.43-8.91.86-10.07-1.65-16.24-10.59-21.05-10.12-5.45-14.91-16.61-15.13-29.25-.31-18.61,0-37.23-.19-55.85-.07-9.54,4.06-14.8,12.54-14.41,6.3.29,7.61-2.64,7.41-8.81-.33-10.43-.24-20.89,0-31.33.26-11.91,5.63-19.07,16.72-18.37,5,.31,7-1.56,9.42-5.85,2.61-4.68,6.45-8.59,12.22-4.79-7,21.73-4.27,44.38-5.19,66.69-.5,12.24-2.36,13.67-11.46,10.51-4.81-9.56-1.91-20-2.69-30-.51-6.58,1-13.33-1.39-19.67-2.7-2.57-4.5-1-6,1.71-.69,14.5-2,29,1,43.29a65.68,65.68,0,0,1,2.92,11.1C136.37,181.72,136.77,196.46,132.55,210.8Z"/><path class="cls-6" d="M255.24,124.42c-8.57-2.21-5.13-9.79-5-15.26.13-7.3,4.08-12.56,10.35-14.81,2.95-1.06,6.32-.68,9.51-.95a3.17,3.17,0,0,1,2.86-1.52,31,31,0,0,1,11-11.19c8.36-.28,16,.82,18.49,11.85.48,13.63,11.43,5.32,16.36,9.62l2.94,2.73c6.21,3.66,13.34-.89,19.56,2.67,9.5,7.34,11.06,16.43,4.83,27.22a2.7,2.7,0,0,1-2.2-.62c-3.27-3.86-2.13-8.88-2.86-13.4-.51-1.58-.76-3.32-2.21-4.32l-2.43-.28c-6.87,5.55-6.07,13.82-6.43,21.77-.39,8.67,1.49,18-5.57,24.87l-2.65-1c-2.69-11.92-.4-24.07-1.34-36.05-.33-4.11,2.2-8.94-2-12.29a7.15,7.15,0,0,1-1.62-.53c-7.76-1.25-8.45,4.66-8.72,10.79-.44,9.84.42,19.73-.52,29.53-.73,7.58-2.88,13.77-11.46,7.95-2.91-16.83-.71-33.81-1.38-50.7-.22-5.75.67-11.67-2.34-16.93a2.42,2.42,0,0,0-.93-2.12c-8.58,3.46-7.37,12.14-7.77,19.37-.78,14.05.42,28.18-.61,42.23-.66,9.12-2,9.83-10,8.1-.08-14.48-.06-29-.3-43.44-.07-4.29,1.43-9.23-2.8-12.45-2.57.41-5.11.9-6.87,3.33-.55,1-1.1,2-1.58,3C259.57,116,262.48,123.26,255.24,124.42Z"/><path class="cls-7" d="M253,257.52c-16.68-8.51-24.15-22.82-23.2-43.28.66-14,.13-28,.13-42,0-1.81,0-3.62,0-5.42-.09-12.17,6.74-14.78,16-15.18s-2.7-19.6,11.36-16.46c5.77,19.37,14.83,38.2,8,59.65l0,2.76c.92,4.58,3,9.29-1.16,13.32-7,4.14-7.49-1.26-7.57-6.64-.15-9.48,0-19-.07-28.44-.05-9.86-3.52-15.66-13.4-13.68-3,20.73-1.8,41.6-.9,62.37.46,10.38,7.27,16.7,15.66,20.94,4.19,2.12,10.09,2.25,10.9,9.37,0,2.11-.76,4.09-.92,6.17.27,4.08.49,8.17-.6,12.17a24.09,24.09,0,0,1-4.1,8.85c-4.6,3.83-5.84-.86-7.78-3.78C251,271.86,256.91,264,253,257.52Z"/><path class="cls-8" d="M314.54,257.12c-.9-6.59,3.31-6.8,7.44-8,13.87-4,19.65-12,19.87-28,.29-21.69,0-43.38.18-65.08,0-4-2-9.5,4.21-10.68,4.2,1.75,3.11,5.86,3.12,9.23.09,23.49,0,47,.1,70.46.05,8.65-2,17.22-8,21.77-8.94,6.76-9.5,15.48-9.19,25.66.16,5.22,1.87,13.49-7.73,9.14a7.52,7.52,0,0,1-2.31-8.25C325.29,264.52,320.76,260.4,314.54,257.12Z"/><path class="cls-9" d="M133.48,282c2.8-7.88-2.21-17.21,3.68-24.52,1-1.39,2-1.34,2.84.16-.37,7.25,2.78,9.41,9.15,11.32,13.61,4.09,26.68-.57,40-.44a2.2,2.2,0,0,1,3.06-.15,17,17,0,0,1,2,12.85Z"/><path class="cls-10" d="M142.64,159.27c5,5.6,7.79,4,8-3.4.26-12.12.16-24.25.11-36.37,0-12.77-1.41-25.85,7.74-36.18a1.13,1.13,0,0,1,1.71.18,5.61,5.61,0,0,1,.11,5.31c-.21,19.35-.33,38.69-.67,58-.22,12.22-5.18,19.24-17.06,18C141,163,141.17,161.1,142.64,159.27Z"/><path class="cls-11" d="M194.23,281.17c-2.84-3.7-2-8.41-2.87-12.67-1.23-19.07-2.42-38.14.69-57.15l4.36-3.09c6.79,0,8,5.73,8.16,11.1.37,17.58,1.61,35.2-.69,52.75a14.42,14.42,0,0,1-2.53,4.29C199.42,278.8,197.79,281.76,194.23,281.17Z"/><path class="cls-12" d="M314.54,257.12c7.51-.06,11.1,3.45,9.87,12.33-.55,4,0,8.11.09,12.18l-61.32.41q.81-4.44,1.6-8.86c14.65.41,29.29,1.19,43.94.75,4.37-.13,9.08,1.19,12.77-2.84C323.59,263.72,315.28,262.74,314.54,257.12Z"/><path class="cls-13" d="M201.35,276.4a2,2,0,0,1,0-2.45c3.46-6.68,9.05-6.29,14.77-5.46,8.94,0,18-1,26.78.34,9.24,1.46,11.41-2.38,10.09-11.31,6.09,6.16,1.72,13.82,2.41,20.74Z"/><path class="cls-14" d="M160.26,88.81l-.12-5.32,4,1.78v68.48C160.14,132.23,164.74,110.25,160.26,88.81Z"/><path class="cls-15" d="M277.5,36.67c5.11,6.62,1.61,14.5,2.52,21.73.57,4.58-1.28,10.31,5.27,11.39.38,2.72-1.7,3.55-3.08,4.92-7.47-5.87-3.69-14.59-4.41-22.11C277.3,47.34,277.58,42,277.5,36.67Z"/><path class="cls-15" d="M285.29,69.76,284.81,37C288.36,47.86,287.63,58.8,285.29,69.76Z"/><path class="cls-16" d="M318.8,102.16c-5.66-2.77-17.3,7-16.36-9.62C304,104,315.32,94.83,318.8,102.16Z"/><path class="cls-17" d="M341.3,107.56c-6.44-1.6-13.64,3.6-19.56-2.67C328,108.23,335.58,99.46,341.3,107.56Z"/><path class="cls-18" d="M267.22,257.39c1.25-6.56-2.71-7-7-8.09-15.18-4-21.88-13.24-22.13-30.48-.24-15.75-.19-31.51,0-47.26.05-3.81-2.14-9.92,5-9.4,5.1,14.87,2.34,30.36,2.13,45.46-.24,17.67,4.71,31.11,19.48,38.21,5.7,2.74,5.45,6.82,5.41,11.76A1.86,1.86,0,0,1,267.22,257.39Z"/><path class="cls-19" d="M265.31,194.84c2.57-20.74-8.83-39.18-8-59.64-1.59-3.39-5.5-6.2-2.11-10.78,5.73-4.34.12-12.55,4.77-17.27,2.22,2.65,1.25,5.92,1.49,9.79.05-3.92.74-7.14-1.5-9.77,2.55-5.62,5.83-6.44,9.95-1.9l-.26,1c-2.56,17.62,1.15,35.53-2,53.13C269.9,171.44,274.76,183.74,265.31,194.84Z"/><path class="cls-20" d="M273.05,161.15c8.11,3.77,7.82-2.58,7.85-8.21.08-16.78,0-33.56.09-50.34.06-7.48.71-14.69,10.46-11.15-3.66,17.76-1.1,35.76-1.51,53.64-.16,7.34-1.43,13.38-7,17.52C279.42,165.18,275.62,167.49,273.05,161.15Z"/><path class="cls-21" d="M297.18,162.32c7.1,1.82,7.08-3.52,7.1-8.75q0-17.59,0-35.21c0-4.35.72-8.21,4.91-9.79,3.75-1.41,6.14.59,7.6,4.36l-.38,1.22c-2.73,14,1.2,28.47-2.11,42.47-5.25,3.88-9.45,10.46-17.09,8.18-.64-.54-.86-1.09-.66-1.64S297,162.32,297.18,162.32Z"/><path class="cls-22" d="M324.43,162.8c4.49-12,2.55-24.67,2.79-37.08.13-7,1.71-11.62,9.21-9.56,0,12.08.44,24.19-.16,36.24C335.9,159.85,334,167.28,324.43,162.8Z"/><path class="cls-23" d="M297.18,162.32c0,.83,0,1.66,0,2.49-4.76-4.09-5-9.86-5-15.84.1-18.47.11-36.94.15-55.4,6.1,2.35,3.68,8.16,3.8,12.58C296.71,124.87,296.88,143.6,297.18,162.32Z"/><path class="cls-24" d="M267.22,257.39l2.94.2c1.09,9.92,6.62,13.69,15.08,13.64,11.34-.07,22.67,0,34,0,.2,5.41-3.56,3.91-6,4-10.19.18-20.44-.72-30.55.29-10.8,1.09-17.8-1.39-17.52-15.2C264.88,258.47,265.85,257.76,267.22,257.39Z"/><path class="cls-25" d="M265.17,260.29c1.68,13.14,9.53,15.11,19.6,13.72,11.44-1.59,23.29,2.95,34.48-2.77a16.74,16.74,0,0,0,2.24-.15c-.19,3-1.26,5.4-4.27,5.38q-24.87-.21-49.75-.74c-.91,0-1.79-1.66-2.69-2.55C263.94,268.85,263.45,264.53,265.17,260.29Z"/><path class="cls-26" d="M267.72,159.37c1.06-17.7-2.47-35.6,2-53.14C269.26,124,272.89,141.86,267.72,159.37Z"/><path class="cls-17" d="M318.42,113.46c6.6,6.6,2.34,15.14,3,22.73.79,8.46.27,17.07.32,25.61-6.45-6.66-2.1-15.12-2.85-22.68C318.08,130.65,318.53,122,318.42,113.46Z"/><path class="cls-27" d="M314.31,156.62c1.27-14.13-2.6-28.57,2.11-42.48q.16,22.1.31,44.18c0,.28-.45.57-.7.86Z"/><path class="cls-17" d="M341.74,118.4c3.95,4.7,1.59,10.49,2.19,15.76l-2.64-2C339.82,127.48,339.05,122.87,341.74,118.4Z"/><path class="cls-28" d="M341.74,118.4l-.45,13.72c-4.27-4.57-1.63-10.45-2.43-15.68Z"/><path class="cls-29" d="M264.18,210.92q.58-6.66,1.16-13.32C268.42,202.42,269.72,207,264.18,210.92Z"/><path class="cls-30" d="M216.12,268.49c-4,4.94-10.56,1.26-14.77,5.46L201,222.53c0-5.34.93-11.09-4.58-14.27v-7.74a1.21,1.21,0,0,1,1.81-.4c4.17-3.13,4.69-7.84,4.41-12.83-.3-5.47.46-10.53,4-14.7,4.95,19.89,1.2,40.16,2.09,60.24C209.23,245.32,207.13,258.26,216.12,268.49Z"/><path class="cls-30" d="M206.59,172.59c-1.16,5.64-3.37,11-2.82,17.07.44,4.78-.59,9-5.54,10.46,4.84-7.82.81-17.62,5-26.06,1.93-3.91-3.76-4.35-6.81-4.87-8.79-1.49-16.7-4.31-19.35-15.33-.79-23.73.7-47.49-.87-71.21,3.55-2.89,7-4.12,10.32.46-4.52,21.7-3,43.59-.7,65.3a19.55,19.55,0,0,0,11.94,16C201.34,165.94,205.75,167.07,206.59,172.59Z"/><path class="cls-31" d="M218.82,14.92c4-8.06,8-9,12.14-.16-3,14.15-.52,28.52-1.41,42.74-.36,5.74,1.36,11.66-1.24,17.19l-4.8,3c-6.75-1.16-3.32-7-3.52-10.59C219,49.71,221.14,32.26,218.82,14.92Z"/><path class="cls-32" d="M242.88,30.42c2.63-3.24,5.25-4.71,7.78.13,3.55,13,3.81,25.91-.15,38.84-1.72,3.55-2.67,7.91-7.22,8.51C240.82,62.1,241.64,46.26,242.88,30.42Z"/><path class="cls-33" d="M250.51,69.39l.15-38.84c6.78,1.32,4.18,7.33,4.66,11.71,1.47,13.51-2.95,27.51,2.75,40.68C249.54,82.56,255.54,72.18,250.51,69.39Z"/><path class="cls-34" d="M263.3,80.25c1.26-14.45-2.36-29.22,2.22-43.46,6,1,4.33,6.35,4.51,10.29.43,9.24-.15,18.51.11,27.76Z"/><path class="cls-35" d="M270.14,74.84c-5-7.09-1.4-15.3-2.44-22.91-.69-5,1.63-10.64-2.18-15.14C267,33,269.63,33,272.62,34,271.52,47.62,275.14,61.55,270.14,74.84Z"/><path class="cls-36" d="M225.94,159.4c5.11,11.06,1.67,22.87,2.24,34.31.56,11.17-.09,22.41-.26,33.62,0,.23-.54.62-.85.64a3,3,0,0,1-1.14-.4A394.9,394.9,0,0,1,225.94,159.4Z"/><path class="cls-37" d="M218.82,14.92c4.78,15.15.9,30.82,2.25,46.17.49,5.56-2,11.7,2.44,16.56-1.3,2.41-3.35,2.6-5.57,2.34Q218.38,47.46,218.82,14.92Z"/><path class="cls-38" d="M225.94,159.4q0,34.08,0,68.17A194.18,194.18,0,0,1,225.94,159.4Z"/><path class="cls-39" d="M228.31,74.69c0-15.78,0-31.56.14-47.35C228.5,23,227,18.18,231,14.76a1.66,1.66,0,0,1,.21,2.11q-.21,29.77-.45,59.55c0,.3-.45.59-.68.88Z"/><path class="cls-40" d="M206.48,25.44V74.06c-1.43-16.22-5.61-32.52,0-48.58Z"/><path class="cls-41" d="M242.88,30.42q.19,23.74.41,47.47l-2.73,2.35C241.88,63.67,237.94,46.79,242.88,30.42Z"/><path class="cls-42" d="M272.93,91.88c-.46,1.67-1.26,2.53-2.86,1.52-1.75-2.85-5.09-1.79-9.52-4C266.56,88.3,270.21,87.37,272.93,91.88Z"/><path class="cls-43" d="M191.56,118.48c.13,3.39.27,6.78.4,10.17C186.13,125.54,189.25,122,191.56,118.48Z"/><path class="cls-44" d="M140,257.59l-2.84-.16c1.23-6.56-2.8-7-7-8.14-15.33-4.2-21.94-13.37-22.13-30.51-.18-15.78-.2-31.57.07-47.34.06-3.68-2.45-10,4.92-9.3,0,15.84-.29,31.69.11,47.52.38,14.93,5.18,27.49,18.53,33.69C137.58,246.12,141.25,249.91,140,257.59Z"/><path class="cls-45" d="M129.86,106.83c1.92-4.26,5-1.66,7.65-1.59,4.85,9.18,1.91,19.21,2.34,28.82.45,10.24.31,20.52.16,30.79-1.67,12.7,4,26.5-4.65,38.16-4-12.43.91-25.66-2.76-38.11l-2.84-7.2A316.48,316.48,0,0,1,129.86,106.83Z"/><path class="cls-46" d="M140,164.85c-5.27-19.64-1.2-39.76-2.5-59.61,6.8-.29,5.19,5.57,5.23,9.52.17,14.83,0,29.67-.1,44.51,0,1.86-.07,3.73-.11,5.59Z"/><path class="cls-47" d="M192.05,211.35l-.69,57.15c-.75,0-1.49,0-2.24,0,0-14.92-.12-29.85,0-44.78C189.22,219.43,187.61,214.45,192.05,211.35Z"/><path class="cls-48" d="M132.6,164.9c5.32,12.31.56,25.52,2.76,38.11-1.25,2.45.76,6.37-2.81,7.79Q132.57,187.85,132.6,164.9Z"/><path class="cls-48" d="M124.53,165.19c6.85,7.44,2.35,16.8,3.28,25.21.72,6.58.07,13.36,0,20C122.64,195.73,128.09,180.06,124.53,165.19Z"/><path class="cls-49" d="M189.29,177.83c5.38,5.58,1.7,12.72,2.65,19.06C185.92,191.42,190.46,184.14,189.29,177.83Z"/><path class="cls-50" d="M176.17,82.65c2.85,1.92,3.26,5,3.07,8.27-1.21,21,2.68,42.14-2.2,62.94C172.56,130.19,174,106.43,176.17,82.65Z"/><path class="cls-51" d="M129.86,106.83q-.06,25.44-.1,50.87A136.82,136.82,0,0,1,129.86,106.83Z"/><path class="cls-52" d="M260,107.17c3.47,3.37,3.59,7.23.95,12.84L260,107.15Z"/><path class="cls-53" d="M16.87,356.85a14.7,14.7,0,0,1-8.64-2.65,17.87,17.87,0,0,1-6-7.63,29.51,29.51,0,0,1-2.21-12,29,29,0,0,1,2.24-11.93A18,18,0,0,1,8.37,315a15.07,15.07,0,0,1,8.79-2.69,12,12,0,0,1,6.25,1.61,16.77,16.77,0,0,1,3.07,2.28,2.19,2.19,0,0,1,.21,2.86l-.34.46a1.67,1.67,0,0,1-2.5.3,12.73,12.73,0,0,0-2.21-1.61,8.67,8.67,0,0,0-4.42-1.12,10.13,10.13,0,0,0-6.4,2.13,13.67,13.67,0,0,0-4.25,6,25.56,25.56,0,0,0-1.5,9.24,26.55,26.55,0,0,0,1.48,9.33,13.75,13.75,0,0,0,4.15,6.13A9.8,9.8,0,0,0,17,352.07a9.4,9.4,0,0,0,5-1.31,14.15,14.15,0,0,0,2.72-2.13,1.69,1.69,0,0,1,2.55.18l.34.43a2.16,2.16,0,0,1,0,2.74,16.84,16.84,0,0,1-4,3.24A13.31,13.31,0,0,1,16.87,356.85Z"/><path class="cls-53" d="M35.44,354V309.42h4.84v12.71l-.18,6.55a26.84,26.84,0,0,1,4.33-3.7,9.08,9.08,0,0,1,5.22-1.54q4.55,0,6.64,3.18t2.09,9.27V354a1.93,1.93,0,0,1-1.82,2H55.37a1.93,1.93,0,0,1-1.82-2V336.61c0-3-.44-5.13-1.3-6.49a4.55,4.55,0,0,0-4.13-2,6.62,6.62,0,0,0-3.92,1.24A23.19,23.19,0,0,0,41,332.18a2.88,2.88,0,0,0-.76,2V354a1.94,1.94,0,0,1-1.82,2h-1.2A1.94,1.94,0,0,1,35.44,354Z"/><path class="cls-53" d="M78.67,356.85a11.77,11.77,0,0,1-6.52-2,13.91,13.91,0,0,1-4.89-5.7,20,20,0,0,1-1.86-9,20.25,20.25,0,0,1,1.86-9.1,13.87,13.87,0,0,1,4.89-5.71,11.86,11.86,0,0,1,13.06,0,14.06,14.06,0,0,1,4.87,5.71,20.25,20.25,0,0,1,1.85,9.1,20,20,0,0,1-1.85,9,14.09,14.09,0,0,1-4.87,5.7A11.72,11.72,0,0,1,78.67,356.85Zm0-4.45a6.92,6.92,0,0,0,6-3.38,15.5,15.5,0,0,0,2.27-8.81,15.82,15.82,0,0,0-2.27-8.91,6.94,6.94,0,0,0-11.94,0,15.66,15.66,0,0,0-2.3,8.91,15.34,15.34,0,0,0,2.3,8.81A7,7,0,0,0,78.67,352.4Z"/><path class="cls-53" d="M110.63,356.85a11.8,11.8,0,0,1-6.52-2,14,14,0,0,1-4.89-5.7,20,20,0,0,1-1.86-9,20.25,20.25,0,0,1,1.86-9.1,14,14,0,0,1,4.89-5.71,11.86,11.86,0,0,1,13.06,0,14.06,14.06,0,0,1,4.87,5.71,20.25,20.25,0,0,1,1.86,9.1,20,20,0,0,1-1.86,9,14.09,14.09,0,0,1-4.87,5.7A11.69,11.69,0,0,1,110.63,356.85Zm0-4.45a6.91,6.91,0,0,0,6-3.38,15.42,15.42,0,0,0,2.27-8.81,15.74,15.74,0,0,0-2.27-8.91,6.94,6.94,0,0,0-11.94,0,15.66,15.66,0,0,0-2.3,8.91,15.34,15.34,0,0,0,2.3,8.81A7,7,0,0,0,110.63,352.4Z"/><path class="cls-53" d="M138.93,356.85a13.76,13.76,0,0,1-5.83-1.27,20.26,20.26,0,0,1-3.18-1.81,2.18,2.18,0,0,1-.54-3l.23-.34A1.68,1.68,0,0,1,132,350a19.27,19.27,0,0,0,2.53,1.62,9.43,9.43,0,0,0,4.54,1.08,5.65,5.65,0,0,0,4.25-1.47,4.89,4.89,0,0,0,1.41-3.51,4,4,0,0,0-1-2.75,8.06,8.06,0,0,0-2.48-1.87c-1-.5-2-1-3.09-1.4a41.23,41.23,0,0,1-3.95-1.94,9.55,9.55,0,0,1-3.19-2.82q-1.68-2.36-1.08-6.46a4.81,4.81,0,0,1,.19-.77q2.33-6.23,9.56-6.23a11.75,11.75,0,0,1,5,1.05,15.83,15.83,0,0,1,2.27,1.25,2.16,2.16,0,0,1,.51,3l-.14.21a1.7,1.7,0,0,1-2.38.5,13.28,13.28,0,0,0-1.73-1,7.8,7.8,0,0,0-3.48-.79,5.15,5.15,0,0,0-4,1.38,4.56,4.56,0,0,0-1.27,3.21,3.49,3.49,0,0,0,.89,2.46,7.39,7.39,0,0,0,2.3,1.63q1.41.69,3,1.41a44.43,44.43,0,0,1,4.07,1.94,9.86,9.86,0,0,1,3.33,2.88,7.9,7.9,0,0,1,1.33,4.82,9.44,9.44,0,0,1-1.21,4.71,9,9,0,0,1-3.54,3.48A11.62,11.62,0,0,1,138.93,356.85Z"/><path class="cls-53" d="M167.77,356.85a12.65,12.65,0,0,1-7-2,13.91,13.91,0,0,1-4.95-5.74,22.58,22.58,0,0,1,0-17.88,14.77,14.77,0,0,1,4.8-5.77,10.78,10.78,0,0,1,6.19-2,9.88,9.88,0,0,1,8.47,4.06q3,4.06,3,10.88c0,.57,0,1.12,0,1.67a9,9,0,0,1-.15,1.41H161.72a2.72,2.72,0,0,0-2.35,3.59,11.51,11.51,0,0,0,2.3,4.47,8.36,8.36,0,0,0,6.69,3,10.19,10.19,0,0,0,3.8-.69A14.16,14.16,0,0,0,174,351a1.74,1.74,0,0,1,2.4.85h0a2.16,2.16,0,0,1-.79,2.78,22.05,22.05,0,0,1-2.53,1.25A13.4,13.4,0,0,1,167.77,356.85Zm-5.94-19.26h9.57a2.69,2.69,0,0,0,2.41-3.33,9.51,9.51,0,0,0-1.59-4A6.11,6.11,0,0,0,167,327.7a7.17,7.17,0,0,0-5.39,2.59,9.87,9.87,0,0,0-2.09,3.61A2.71,2.71,0,0,0,161.83,337.59Z"/><path class="cls-53" d="M185.87,354v-41h5.9L199.2,336c.47,1.48.93,3,1.39,4.49s.91,3,1.38,4.49h.24c.47-1.49.91-3,1.33-4.49s.85-3,1.32-4.49l7.31-22.94h6v41a1.94,1.94,0,0,1-1.82,2h-1a1.94,1.94,0,0,1-1.82-2V332.41q0-2.88.24-6.38t.41-6.33h-.24l-3.06,9.77L204,350.41a1.84,1.84,0,0,1-1.71,1.33h-.69a1.85,1.85,0,0,1-1.72-1.33L193,329.47l-3.07-9.77h-.23q.16,2.82.38,6.33t.21,6.38V354a1.94,1.94,0,0,1-1.83,2h-.77A1.94,1.94,0,0,1,185.87,354Z"/><path class="cls-53" d="M228.74,369.76a7.92,7.92,0,0,1-1.79-.19,12.86,12.86,0,0,1-1.57-.46l1-4.26,1.06.29a4.12,4.12,0,0,0,1.12.17,5,5,0,0,0,4-1.94,13.91,13.91,0,0,0,2.48-4.88l.64-2.36L225.15,327a2,2,0,0,1,1.69-2.78h1a1.85,1.85,0,0,1,1.71,1.33l5.4,16.3c.43,1.35.89,2.82,1.38,4.39s1,3.1,1.39,4.59H238c.43-1.45.85-2.95,1.24-4.53s.79-3.05,1.18-4.45l4.72-16.22a1.87,1.87,0,0,1,1.74-1.41h.83a2,2,0,0,1,1.72,2.69l-10,31.78a31.46,31.46,0,0,1-2.39,5.64,12.2,12.2,0,0,1-3.42,4A8.2,8.2,0,0,1,228.74,369.76Z"/><path class="cls-53" d="M263.12,354V320.4a2.61,2.61,0,0,0-2.45-2.73H253.9a2.6,2.6,0,0,1-2.45-2.73v-1.86h28.31v1.86a2.6,2.6,0,0,1-2.46,2.73h-6.76a2.61,2.61,0,0,0-2.46,2.73V354a1.94,1.94,0,0,1-1.82,2H265A1.94,1.94,0,0,1,263.12,354Z"/><path class="cls-53" d="M283.53,354V326.25a1.94,1.94,0,0,1,1.82-2h.51a1.91,1.91,0,0,1,1.81,1.87L288,330h.18a14.15,14.15,0,0,1,3.6-4.78,7,7,0,0,1,4.54-1.77,7.09,7.09,0,0,1,3.07.65l-.95,4.72a10.85,10.85,0,0,0-1.3-.39,6.72,6.72,0,0,0-1.47-.13,6,6,0,0,0-3.8,1.63,12.49,12.49,0,0,0-3.25,5.16,3.28,3.28,0,0,0-.2,1.13V354a1.94,1.94,0,0,1-1.83,2h-1.19A1.94,1.94,0,0,1,283.53,354Z"/><path class="cls-53" d="M312.2,356.49c-3.79.87-6.78.19-9-2A10,10,0,0,1,305,339.79q4.22-2.79,13.35-3.9a14.41,14.41,0,0,0-.5-3.87,6,6,0,0,0-1.77-3,5.22,5.22,0,0,0-3.62-1.14,10.56,10.56,0,0,0-4.66,1,24,24,0,0,0-2.37,1.3,1.7,1.7,0,0,1-2.45-.78l-.09-.16a2.14,2.14,0,0,1,.71-2.77,34.33,34.33,0,0,1,3.34-1.75,15.08,15.08,0,0,1,6.34-1.34q5.25,0,7.61,3.57t2.36,9.53V354a1.94,1.94,0,0,1-1.83,2h-.57a1.91,1.91,0,0,1-1.81-1.78l-.22-2h-.17a25.06,25.06,0,0,1-5.86,4A2.9,2.9,0,0,1,312.2,356.49Zm-1.6-4a7.39,7.39,0,0,0,3.89-1.11,19.87,19.87,0,0,0,3-2.31,2.87,2.87,0,0,0,.89-2.12v-4.4a2.56,2.56,0,0,0-2.89-2.69,19.5,19.5,0,0,0-7.1,2.47,5.91,5.91,0,0,0-2.86,5.05,4.78,4.78,0,0,0,1.47,3.9A5.46,5.46,0,0,0,310.6,352.53Z"/><path class="cls-53" d="M334.77,317.67a3,3,0,0,1-2.32-.95,4,4,0,0,1,0-5.14,3.25,3.25,0,0,1,4.65,0,4,4,0,0,1,0,5.14A3,3,0,0,1,334.77,317.67ZM332.3,354V326.25a1.93,1.93,0,0,1,1.82-2h1.19a1.93,1.93,0,0,1,1.82,2V354a1.93,1.93,0,0,1-1.82,2h-1.19A1.93,1.93,0,0,1,332.3,354Z"/><path class="cls-53" d="M346.8,354V326.25a1.94,1.94,0,0,1,1.83-2h.53a1.92,1.92,0,0,1,1.82,1.83l.25,2.76h.17a23.09,23.09,0,0,1,4.37-3.83,9.18,9.18,0,0,1,5.25-1.54q4.53,0,6.63,3.18t2.09,9.27V354a1.93,1.93,0,0,1-1.82,2h-1.19a1.93,1.93,0,0,1-1.82-2V336.61q0-4.46-1.3-6.49a4.54,4.54,0,0,0-4.13-2,6.64,6.64,0,0,0-3.92,1.24,23.8,23.8,0,0,0-3.16,2.85,2.88,2.88,0,0,0-.76,2V354a1.94,1.94,0,0,1-1.82,2h-1.19A1.94,1.94,0,0,1,346.8,354Z"/><path class="cls-53" d="M381.54,317.67a3.06,3.06,0,0,1-2.33-.95,4,4,0,0,1,0-5.14,3.26,3.26,0,0,1,4.66,0,4.08,4.08,0,0,1,0,5.14A3.08,3.08,0,0,1,381.54,317.67ZM379.06,354V326.25a1.94,1.94,0,0,1,1.82-2h1.19a1.94,1.94,0,0,1,1.83,2V354a1.94,1.94,0,0,1-1.83,2h-1.19A1.94,1.94,0,0,1,379.06,354Z"/><path class="cls-53" d="M393.57,354V326.25a1.93,1.93,0,0,1,1.82-2h.54a1.91,1.91,0,0,1,1.81,1.83l.25,2.76h.18a23,23,0,0,1,4.36-3.83,9.22,9.22,0,0,1,5.25-1.54q4.55,0,6.64,3.18t2.09,9.27V354a1.94,1.94,0,0,1-1.82,2h-1.2a1.94,1.94,0,0,1-1.82-2V336.61q0-4.46-1.3-6.49a4.52,4.52,0,0,0-4.12-2,6.62,6.62,0,0,0-3.92,1.24,23.81,23.81,0,0,0-3.17,2.85,2.93,2.93,0,0,0-.76,2V354a1.93,1.93,0,0,1-1.82,2h-1.19A1.93,1.93,0,0,1,393.57,354Z"/><path class="cls-53" d="M435.49,370.75a15.06,15.06,0,0,1-8.55-2.23,7.23,7.23,0,0,1-3.3-6.36,7.41,7.41,0,0,1,1.12-3.89,11.58,11.58,0,0,1,3.07-3.32v-.26a5.78,5.78,0,0,1-1.8-2,6.31,6.31,0,0,1-.74-3.14,6.21,6.21,0,0,1,1-3.54,9.32,9.32,0,0,1,2.12-2.36v-.26a12.69,12.69,0,0,1-2.57-3.54,10.92,10.92,0,0,1-1.15-5.05,11.76,11.76,0,0,1,1.48-6,10.24,10.24,0,0,1,3.95-3.94,10.93,10.93,0,0,1,5.36-1.37,10.22,10.22,0,0,1,2.25.23,10.7,10.7,0,0,1,1.82.55h8.15a1.94,1.94,0,0,1,1.82,2v.08a1.93,1.93,0,0,1-1.82,2h-4.08a8.35,8.35,0,0,1,1.68,2.79,10.26,10.26,0,0,1,.68,3.76,11.66,11.66,0,0,1-1.42,5.9,10,10,0,0,1-3.77,3.84,10.58,10.58,0,0,1-5.31,1.34,8.72,8.72,0,0,1-4.3-1.11,7.13,7.13,0,0,0-1.3,1.6,4.23,4.23,0,0,0-.53,2.19,3.18,3.18,0,0,0,1.09,2.49c.73.66,2.06,1,4,1H440c3.35,0,5.85.6,7.52,1.8s2.51,3.13,2.51,5.8a9.23,9.23,0,0,1-1.77,5.44,12.65,12.65,0,0,1-5,4A18,18,0,0,1,435.49,370.75Zm.71-3.74a10.24,10.24,0,0,0,6.61-2,5.73,5.73,0,0,0,2.47-4.49,3.24,3.24,0,0,0-1.5-3.08,8.88,8.88,0,0,0-4.28-.85h-4.95a13.14,13.14,0,0,1-1.8-.13,15.55,15.55,0,0,1-1.92-.39,8.5,8.5,0,0,0-2.24,2.62,6,6,0,0,0-.7,2.75,4.69,4.69,0,0,0,2.21,4.06A10.67,10.67,0,0,0,436.2,367Zm-.71-24.64a5.48,5.48,0,0,0,4.28-2.06,8.12,8.12,0,0,0,1.8-5.54,7.86,7.86,0,0,0-1.77-5.44,5.71,5.71,0,0,0-8.61,0,7.86,7.86,0,0,0-1.77,5.44,8.12,8.12,0,0,0,1.8,5.54A5.47,5.47,0,0,0,435.49,342.37Z"/></svg>