<?xml version="1.0" encoding="utf-8"?>
<!-- Generator: Adobe Illustrator 26.1.0, SVG Export Plug-In . SVG Version: 6.00 Build 0)  -->
<svg version="1.1" id="Calque_1" xmlns="http://www.w3.org/2000/svg" xmlns:xlink="http://www.w3.org/1999/xlink" x="0px" y="0px"
	 viewBox="0 0 512 512" style="enable-background:new 0 0 512 512;" xml:space="preserve">
<style type="text/css">
	.st0{fill:#FEFEFE;}
	.st1{fill:#F7E37B;}
	.st2{fill:#72CCA1;}
	.st3{fill:#F0D36A;}
	.st4{fill:#7F99E5;}
	.st5{fill:#728DD4;}
	.st6{fill:#DAE0FE;}
	.st7{fill:#EFF1FE;}
	.st8{fill:#E28791;}
	.st9{fill:#DE867C;}
	.st10{fill:#010100;}
	.st11{fill:#010101;}
	.st12{fill:#DDE2E9;}
	.st13{fill:#DBE0E9;}
	.st14{fill:#7E99E5;}
	.st15{fill:#495059;}
</style>
<g>
	<g>
		<path class="st0" d="M511.9,391.9c0,38.7,0,77.5,0.1,116.2c0,2.9-0.5,3.6-3.5,3.6c-168.2-0.1-336.5-0.1-504.7,0
			c-3.3,0-3.7-1-3.7-3.9C0.1,339.8,0.1,171.7,0,3.6c0-3,0.6-3.9,3.8-3.9c168.1,0.1,336.2,0.1,504.2,0c3.6,0,4,1,4,4.2
			c-0.1,122.3-0.1,244.7-0.1,367c-2.8-0.4-2.2-2.9-2.5-4.6c-3.6-18.5-11.8-34.5-25.3-47.7c-30.1-29.5-79.1-32.5-112.5-7
			c-7.8,6-14.8,12.8-20,21.3c-3.4,5.5-4.8,5.9-10.5,3c-6.8-3.4-13.7-6.8-21-9.2c-6.4-2.1-6.9-4.4-1.8-8.7
			c12.4-10.6,22.2-23.3,30.4-37.3c13.1-22.4,20.8-46.5,22.4-72.6c1.9-30.6-4.3-59.4-18.3-86.6c-0.8-1.6-1.9-3.2-2.6-4.8
			c-2.3-5-5.9-7.4-11.5-6.5c-5.3-4.8-10-10-12.2-16.9c2-4.5,0.4-7.7-2.9-11.1c-26.5-27.1-58.7-42.9-96.1-47
			C171.5,29,124,47.1,85.8,88.4c-22.7,24.6-36,54.1-40.3,87.3c-4.7,35.9,1.4,69.8,19.1,101.5c6.9,12.3,15.5,23.2,24.7,33.7
			c2.4,2.8,5.6,4.6,8.1,7.3c4.3,4.6,4,6.4-1.8,8.3c-11.3,3.7-21.8,9-31.7,15.6c-17.8,11.8-31.6,27.2-42,45.8
			C11.2,407.2,7,428.5,2.8,449.7c-2.8,14,10.2,28.4,24.5,28.7c5.6,0.1,11.3-0.3,17,0.1c5.6,0.4,10.2-0.7,13.1-5.9
			c6.8-2.2,13.7-1.8,20.6-0.4c3.3,5.3,8.2,6.1,14.1,6.1c97.1-0.1,194.2-0.2,291.3,0c8.8,0,16.4-1.9,22.5-8.5
			c3.1-3.3,7.4-2.8,11.3-2.4c11.8,1.1,23.3-0.2,34.3-4.3c30.3-11.2,49.5-32.5,57-64.2C509.1,396.5,508.4,393.1,511.9,391.9z"/>
		<path d="M511.9,391.9c-1.8,1.6-1.3,4-1.7,6c-7.5,39.1-40.9,68.5-80.4,71.2c-5.9,0.4-11.6,0.1-17.4-0.4c-1.9-0.2-3.5-0.3-4.9,1.5
			c-6,7.5-14.1,10-23.4,9.9c-19.6-0.1-39.2,0-58.9,0c-78.8,0-157.6,0-236.4,0c-7.7,0-9.1-1-11.1-7.3c-1.7-3.9,1-5.9,3.7-7.5
			c3.1-1.8,6.7-1.8,10.2-1.8c21.9,0,43.9,0,65.8,0c6.5,0,6.6-0.2,5-6.5c-8.9-35-17.9-69.9-26.9-104.8c-0.9-3.5-2.7-6-5.9-7.5
			c-3.6-1.7-7.2-3.5-10.4-5.8c-2.2-1.6-4.6-1.7-7.1-1.1c-43.5,10.5-72.3,37-86.2,79.6c-3.3,10.3-5.4,20.9-7.9,31.4
			c-2.1,8.7,2.8,14.6,11.9,14.7c5.5,0.1,11,0,16.5,0c2.7,0,5.4,0.4,7.7,1.8c3.1,2,5,4.5,3.1,8.3c-0.8,4.5-3.8,6.4-8.1,6.4
			c-7.5,0-15,0.2-22.4-0.3c-16.3-1-28.1-15.8-24.9-31.8c4.8-23.7,9.9-47.4,23.5-68.2C42.1,354,64.9,335.9,94,325.9
			c2-0.7,4-1.5,6.4-2.3c-5.3-6.1-11.4-11-16.5-16.8C57.1,275.8,42.5,240,42.6,199c0.1-54.1,21.7-98.5,64.4-132
			c33.7-26.5,72.6-37.4,115.1-33.9c40.8,3.4,75.5,20.4,104.2,49.5c3.5,3.5,3.6,7.2,0.7,11.2c-3.3,4-7.9,4.2-12.5,0.1
			c-5.2-4.6-10.1-9.6-15.6-13.9c-20.9-16.1-44.2-26.4-70.3-29.8c-35.5-4.7-68.8,1.9-99.3,21c-18.9,11.3-33.9,26.5-46.1,44.8
			c-13.3,20-21.4,42.1-23.6,66c-2.5,26.9,1.3,52.9,12.9,77.7c11,23.4,26.9,42.6,47.5,58c21.1,15.8,45,25,71.2,27.7
			c42.2,4.3,79.9-7.1,112.6-34.3c16.2-13.9,29.2-30.4,38.4-49.7c8.5-17.9,13-36.8,14-56.7c1.1-22-2.4-42.9-10.5-63.3
			c-2.9-7.3-6.8-14.1-10.2-21.1c-2.5-5-1.4-8.1,3-10.9c6.5-2,8.6-1.2,12.1,5c30.9,56.5,30.2,112.8-1.7,168.6
			c-7.1,12.4-16.2,23.5-26.8,33.3c-2.3,2.1-4.6,4.3-7.4,6.9c11,3.5,21.1,7.5,30.4,13.1c3,1.8,3.3-1.3,4.2-2.7
			c8.9-13.9,20.8-24.4,35.5-31.8C430.3,279,488,301.5,506,349.3c2.7,7.1,3.6,14.6,5.9,21.7C511.9,378,511.9,384.9,511.9,391.9z"/>
		<path class="st1" d="M128.7,70.4c18.1-12.1,38.2-19,59.7-21.5c47.2-5.5,88.4,7.8,123.2,40.4c1.2,1.1,2.4,2.3,3.6,3.4
			c3.7,3.7,7.6,4.4,12,1.2c3.8,5.2,7.6,10.5,11.4,15.7c-4,3.9-3.6,8-0.9,12.5c12.9,22,19.8,45.9,20.3,71.4
			c0.8,38.3-11.3,72.3-36,101.6c-5.2,6.2-10.8,12.1-17.4,17c-3.8,2.5-8.1,2.8-12.4,3.2c-15,1.4-30.1,2.9-45.2,2.1
			c-31.3-1.5-61.7-6.3-89.7-21.5c-16.8-9.2-31.4-21.1-42.6-36.7c-1-1.4-2-2.7-2-4.5c1.1-1.9,3.1-1.6,4.9-1.8
			c6-0.7,11.7-2.2,16.9-5.4c8.3-4.9,13.3-11.8,13-21.8c-0.4-9.9-6.6-15.8-14.5-20.4c-2.7-1.6-6.1-1.6-8.3-4.1c2.5-6.3,2-13,1.8-19.5
			c-0.1-4.6-2.5-7.4-5.7-7.3c-3.3,0-5.9,2.8-6.3,7.1c-0.5,5.6,0,11.2,0.2,16.8c-0.4,1.6-1.6,2.7-3.1,2.8c-6.2,0.5-11.7,3.2-17.5,4.9
			c-0.6-0.1-1.1-0.3-1.5-0.7c-3.2-12-3.6-24.3-2.8-36.5c1.5-25,8.2-48.7,19.6-71c3.5-6.8,7.5-13.3,11.9-19.6
			C123.2,75.1,126,72.9,128.7,70.4z"/>
		<path class="st2" d="M57.2,473.6c-0.5-6-2.7-8.3-8.7-8.5c-6.1-0.2-12.3,0-18.5-0.1c-10.2-0.2-15.6-6.9-13.2-16.8
			c4.4-18.5,7.7-37.5,17.4-54.3c17.7-30.8,43.9-50.1,78.5-57.9c2.7-0.6,4.8-0.3,7,1.3c1.7,1.3,3.5,2.8,5.5,3.4
			c9.1,2.8,11.8,9.8,13.8,18.4c8.1,33.4,17,66.6,25.5,99.8c1.6,6.2,1.6,6.2-4.6,6.2c-23.8,0-47.6,0-71.3,0c-7.2,0-9.1,1.4-10.8,7.7
			C70.9,473.1,64,471.7,57.2,473.6z"/>
		<path class="st3" d="M128.7,70.4c-8,10.5-15.5,21.5-21,33.6c-8.3,18.7-14,38-16.1,58.5c-1.5,14.5,0.3,28.7,1.3,43
			c0.4,1.9-1.2,2.6-2.2,3.6c-14.1,13.5-10.3,33,7.9,40.6c4.5,1.9,9.4,2.1,13.8,4.1c0.2,0.2,0.3,0.4,0.5,0.6
			c17.9,26.5,43.2,42.8,73.3,52.1c16.5,5.1,33.4,7.4,50.6,8.8c22.8,1.9,45.2-0.2,67.7-3.2c-17.2,15-36.9,25.2-58.9,30.8
			c-62.3,15.8-125.9-7.9-162.1-61.1c-22.4-33-30.3-69.6-23.6-109.1c7.2-42.5,29.4-75.5,64.5-100C125.7,71.8,127.2,71.2,128.7,70.4z"
			/>
		<path class="st2" d="M391.9,463.6c-3.4,1.7-5.9,1.4-8.4,1.4c-43,0-86.1,0-129.1,0.1c-4.5,0-5.1-1-4-5.2
			c9.6-36.6,18.9-73.2,28.3-109.8c0.7-2.8,2-4.6,4.7-5.8c2.7-1.2,5.6-2.4,7.8-4.3c5.4-4.7,11.2-4.5,17.5-2.6
			c10,3.1,19.7,6.9,28.8,12.1c2.3,1.3,2.7,2.4,2,5c-10.7,37.9-0.5,69.7,29.1,95.3C375.3,455.6,383,459.9,391.9,463.6z"/>
		<path class="st4" d="M395.1,313.9c26.9-11.1,52.1-7.5,74.6,10.4c31.9,25.4,36.3,71.4,10.6,103.1c-0.4,0.5-1,0.9-1.4,1.3
			c-6.7,3.7-14,2.6-21,2.4c-9.8-0.3-19.5-1.8-28.6-5.9c-0.4-0.5-0.6-1-0.6-1.6c1.8-9.1,0.7-18.2,0.9-27.3c0.2-8,0.9-8.8,8.9-8.9
			c6,0,12,0,18,0c2,0,4,0,5.9-0.6c3-0.9,4.9-2.8,4.8-6.2c-0.2-3.5-2.7-4.8-5.8-5c-6.3-0.4-12.6-0.1-18.9-0.2c-1.7,0-3.3,0-5,0
			c-6.8-0.1-7.7-1-7.8-7.8c-0.1-6.3,0-12.6,0-18.9c0-1.3,0-2.7-0.1-4c-0.4-4.5-2.8-7.4-6-7.3c-3.2,0.1-5.6,3-5.8,7.5
			c-0.3,7.8,0,15.6-0.2,23.4c-0.1,5.9-1.2,7-7.1,7.1c-7.3,0.1-14.6,0.2-21.9-0.1c-1.5-0.1-3-0.1-4.2-1c0.7-3.1,1-6.1,0.7-9.4
			c-1.4-15.4,0.7-30.5,6.6-44.9C392.6,317.9,393.7,315.8,395.1,313.9z"/>
		<path class="st5" d="M395.1,313.9c-1.1,6.6-4.6,12.3-6.1,18.8c-2.7,12.1-4.1,24.2-1.7,36.4c0.6,3.1-0.8,3.9-3.1,4.7
			c-2.3,2.8-6.2,5.1-4,9.7c2,4.3,6.1,4,9.9,4.2c1,0.1,2,0.2,2.9,0.6c3.6,3.8,4.9,8.9,8,13.1c4.4,5.9,10,10.5,15.6,15.1
			c0.2,0.4,0.4,0.8,0.6,1.3c1.5,7.2,2.2,7.6,11.9,7c6.9,0.7,13.3,3.4,20.3,4.2c8.9,1,17.7,1.4,26.6-0.1c1-0.2,2-0.1,3-0.1
			c-21.8,27.8-65.1,34-95.8,13.2c-23.3-15.8-34.5-38.5-32.4-66.5c2.2-28,16.8-48.3,42.1-60.8C393.5,314.3,394.3,314.2,395.1,313.9z"
			/>
		<path class="st6" d="M238.3,446.8c-1.2,5-2.7,9.9-3.6,15c-0.5,2.7-1.9,3.4-4.4,3.4c-15-0.1-29.9-0.1-44.9,0c-2.9,0-4-0.9-4.7-3.7
			c-6.2-24.6-12.6-49.2-18.9-73.7c-2.8-11.1-5.7-22.1-8.8-34.3c18.2,6.3,36.2,9.4,54.7,9.4c18.5,0,36.6-3,55-9.4
			c-2.9,10.6-5.5,20.1-8.1,29.6c-8.9,0.9-17.5,3.8-26.4,4.8c-13.2,1.4-26.4,1.9-39.7,0c-2.1-0.3-4.3-0.5-6.4-0.4
			c-2,0.1-4.2-0.2-5.3,2c-1.2,2.4-0.2,4.6,1.4,6.4c4.2,4.7,8.7,9.2,13.3,13.4c11.9,10.8,24.3,21.1,37.4,30.5
			C232,442,236,443.3,238.3,446.8z"/>
		<path class="st7" d="M238.3,446.8c-11.3-5.4-20.7-13.6-30.3-21.4c-10.2-8.3-20.2-17.2-29.2-26.9c-1.2-1.3-2.6-2.5-3.4-4.2
			c-2.2-4.9-0.1-8.5,5.1-8.3c8.2,0.4,16.5,1.9,24.7,1.8c14.7-0.1,29.3-1.4,43.6-5.3c1.6-0.4,4.2-3.3,5.7,0.5
			c-4.5,17.8-8.9,35.5-13.4,53.3C240.3,439.8,239.2,443.3,238.3,446.8z"/>
		<path class="st8" d="M301.3,198.7c1.8,1.5,4,1.4,6.1,1.7c10.7,1.7,19.7,6.3,24.8,16.2c6.3,12.4,0.8,26.5-13,33.1
			c-15.2,7.3-30,6.2-43.6-4.1c-13.3-10-12-28.8,2.3-39c3.8-2.8,8.1-4.4,12.6-5.9C294.2,200.7,297.8,199.9,301.3,198.7z"/>
		<path d="M207.9,173.6c5.5,0,11-0.1,16.4,0c9.6,0.2,15.4,5.6,15.5,15.1c0.1,8.9,1.2,18-1.4,26.7c-4.5,14.8-19.1,24.4-34,22.7
			c-16.1-1.9-28-14.3-28.8-30.5c-0.3-6.5-0.3-13-0.1-19.4c0.2-8.6,5.8-14.2,14.5-14.5C196,173.4,202,173.6,207.9,173.6
			C207.9,173.6,207.9,173.6,207.9,173.6z"/>
		<path class="st8" d="M124.6,201.2c14.8,2.8,24.8,13.7,24.1,27c-0.5,10.9-7.3,17.6-16.7,22.1c-6.1,2.9-12.5,4-19.2,4
			c0,0,0-0.3,0-0.3c-1.8-0.7-2.9-2.1-3.9-3.7c-7.3-12.2-12.6-25.2-15.5-39.2c-0.4-1.9-1-3.9,0.4-5.7c4.8-2.9,9.9-5.1,15.7-5.2
			c1.7,0,3.2-0.5,4.5-1.7C117.4,199.8,120.9,200.9,124.6,201.2z"/>
		<path class="st9" d="M93.9,205.5c2.5,17.7,9.2,33.7,18.9,48.6c-13-1.1-24.1-5.3-30.1-18c-5.3-11.2,0.5-22.7,7.6-28.4
			c0.9-0.7,1.7-1.5,2.6-2.2C93.2,205.5,93.5,205.5,93.9,205.5z"/>
		<path class="st10" d="M301.3,198.7c-3.1,3.5-6.6,4.4-10.8,2.1c-2.3-2-3.1-4.6-3.1-7.6c0.1-4.5-0.1-9,0.1-13.4
			c0.2-4.2,2.8-6.9,7-7.1c4.2-0.3,7.3,2.2,7.6,6.3C302.5,185.5,303.3,192.2,301.3,198.7z"/>
		<path class="st11" d="M124.6,201.2c-4.2,1.6-7.7,0.9-10.6-2.6c-2-6.3-1.2-12.8-0.8-19.2c0.2-4.2,4.1-7.2,7.8-6.7
			c4.1,0.6,6.7,2.9,6.8,7.2c0.2,5,0,9.9,0.1,14.9C127.9,197.5,126.3,199.4,124.6,201.2z"/>
		<path class="st0" d="M416.3,417.8c-0.1-0.3-0.2-0.6-0.3-1c-1.9-3.4-1.2-7.1-1.4-10.7c-0.3-5.1,0.6-10.3-0.6-15.3
			c-1.1-1.7-2.8-1.5-4.5-1.5c-3.6,0-7.3,0-10.9,0c-8.2-0.1-13.1-7.3-10.4-15.3c7.5,0,15-0.3,22.4-0.1c4.2,0.2,5.9-0.8,5.6-5.4
			c-0.4-7.8-0.1-15.6-0.1-23.4c0-6,3.1-9.9,7.6-9.8c4.4,0.1,7.3,3.8,7.3,9.5c0,7.8,0.2,15.6-0.1,23.4c-0.2,4.2,0.8,5.9,5.4,5.6
			c8-0.4,15.9-0.2,23.9-0.1c5.9,0,8.7,2.4,8.8,7.2c0,4.6-2.9,7.6-8.5,7.7c-8.3,0.2-16.6,0.3-24.9,0c-3.9-0.1-4.8,1.2-4.7,4.8
			c0.2,8,0.1,15.9,0.1,23.9c0,2.3,0,4.7-2,6.4C423.6,424.6,419.9,421.4,416.3,417.8z"/>
		<path class="st12" d="M388.2,374c-0.2,4.3,2.1,7.9,3.1,11.8c0.6,2.3,2.6,2.2,4.4,2.2c5.3,0,10.5,0,15.8,0c1.5,0,3.3-0.7,4.5,1.1
			c-7.6,2.4-15.3,2.3-22.9,0c-2.3-0.1-4.6,0-6.9-0.3c-4.1-0.4-7.5-2-8-6.6c-0.5-4.5,1.6-7.2,6-8.3
			C385.5,373.9,386.9,373.9,388.2,374z"/>
		<path class="st13" d="M416.3,417.8c4.4,1.8,8.1,4.9,12.8,6.1c0,0.3-0.1,0.6-0.1,0.9C421.4,428.8,416.5,426.1,416.3,417.8z"/>
		<path class="st14" d="M393.2,389.1c7.6,0,15.3,0,22.9,0c0,9.3-0.1,18.6-0.1,27.8C405,410.3,397.6,400.9,393.2,389.1z"/>
		<path class="st15" d="M208,188.5c4.2,0,8.3,0.2,12.5-0.1c3.1-0.2,4.5,0.8,4.4,4.2c-0.3,4.8,0,9.6-0.1,14.5
			c-0.3,9.1-7.7,16.2-16.9,16.2c-9.2,0.1-17-7.2-17.2-16.4c-0.1-5,0-10-0.1-15c-0.1-2.6,0.9-3.5,3.5-3.5
			C198.7,188.6,203.3,188.5,208,188.5z"/>
	</g>
</g>
</svg>
