<?xml version="1.0" encoding="utf-8"?>
<!-- Generator: Adobe Illustrator 26.1.0, SVG Export Plug-In . SVG Version: 6.00 Build 0)  -->
<svg version="1.1" id="Calque_1" xmlns="http://www.w3.org/2000/svg" xmlns:xlink="http://www.w3.org/1999/xlink" x="0px" y="0px"
	 viewBox="0 0 512 512" style="enable-background:new 0 0 512 512;" xml:space="preserve">
<style type="text/css">
	.st0{fill:#FEFEFE;}
	.st1{fill:#A1F3C0;}
	.st2{fill:#FD646F;}
	.st3{fill:#685E68;}
	.st4{fill:#78CFB0;}
	.st5{fill:#FC4755;}
	.st6{fill:#554E56;}
</style>
<g>
	<g>
		<path class="st0" d="M511.9,466c0,14.5-0.1,28.9,0.1,43.4c0,2.1-0.4,2.9-2.5,2.5c-0.8-0.2-1.7,0-2.5,0c-167.4,0-334.8,0-502.2,0.1
			c-3.5,0-4.7-0.4-4.7-4.4C0.1,339.8,0.1,172.1,0,4.4C0,0.8,0.7,0,4.3,0c167.7,0.1,335.5,0.1,503.2,0c3.9,0,4.5,1.1,4.5,4.7
			c-0.1,114.5-0.1,229.1-0.1,343.6c-2.5-0.2-2.4-2.5-2.9-4.1c-5.1-13.7-15.7-21.3-30.4-21.3c-25.9-0.1-51.8,0-77.7,0c-2,0-4,0-6-0.1
			c-3.5-0.1-5.1-2-5.2-5.3c-0.1-3.2-0.1-6.3-0.1-9.5c0-17.6-0.1-35.2,0-52.8c0-5.2-1.3-9.5-6-12.2c-3.5-6.5-2.1-13.3-1.2-20.1
			c9-5.5,7.3-14.4,7.2-22.7c-0.1-7.6-2.3-14.3-8.1-19.7c-3.1-2.8-6.6-4.3-10.6-5.2c-5.6-1.2-6.1-1.8-6.2-7.7
			c-0.1-13.3,0.2-26.6-0.1-39.9c-0.6-28.3-10.6-52.8-30.3-73.3c-18.2-19-40.5-30.2-66.6-32.7c-31.7-3-59.9,6-83.7,27.3
			c-21.4,19.2-33.2,43.4-35.6,71.9c-1.1,12.7-0.2,25.6-0.3,38.4c0,2.3,0,4.7,0,7c-0.1,7.5-0.1,7.5-7.3,9.2
			c-8.6,2.1-13.7,7.7-16.3,15.8c-1.2,3.7-1.3,7.5-1.3,11.4c0,35.7,0,71.5,0,107.2c0,1.5,0,3,0,4.5c-0.1,7.4-0.8,8.1-8.4,8.2
			c-1.5,0-3,0-4.5,0c-24.8,0-49.5,0-74.3,0c-21,0-33.5,12.6-33.5,33.6c0,33.9,0,67.8,0,101.7c0,12.6,5.4,22,16.4,28.2
			c4.3,2.4,9,3.3,13.9,3.3c14.8,0,29.6-0.3,44.4,0.1c6.2,0.2,11.5-0.7,15-6.4c6.6-1.3,13.2-1.6,19.8,0.2c3.3,4.9,8.1,6,13.8,6
			c117.5-0.1,235.1-0.1,352.6,0c14.2,0,24-6.4,29.9-19.2C509.1,468.5,509.3,466.2,511.9,466z"/>
		<path d="M383.7,242.2c5.8,1.7,7.2,3.5,7.2,10.2c0,21.3,0.2,42.6-0.1,63.8c-0.1,4.6,1.3,5.3,5.5,5.3c25.8-0.2,51.5-0.1,77.3-0.1
			c22.4,0,31.3,6.2,38.4,26.9c0,39.2,0,78.5,0,117.7c-0.2,0.1-0.4,0.1-0.4,0.2c-8.5,20-15.9,24.9-37.9,24.9
			c-116.9,0-233.7,0-350.6,0c-7.8,0-8.8-0.7-11.2-7.2c-0.5-4.7,1.5-7.6,6.4-8.9c3.3-0.9,6.6-0.6,9.9-0.6c114.8,0,229.7,0,344.5,0
			c2.3,0,4.7,0.1,7,0c9.2-0.4,14.7-5.6,15.6-14.8c0.1-1,0.1-2,0.1-3c0-33.6,0-67.1,0-100.7c0-8.5-3.6-14.3-11.6-17.2
			c-2.2-1-4.5-0.9-6.9-0.9c-143.4,0-286.8,0-430.2,0c-4.2,0-8.3,0.1-12.5,0.2c-10.3,0.4-16.5,6.7-16.6,17.3
			c-0.2,18.4-0.1,36.9-0.1,55.3c0,15.3,0,30.6,0,45.9c0,4.6,0.8,9,3.8,12.6c2.9,3.6,6.8,5.2,11.4,5.3c4,0.1,8,0.1,12,0.2
			c12.3-0.1,24.6-0.1,36.9,0c4,0,7.6,0.8,10,4.4c1,1.6,1.6,3.3,0.5,5.1c-0.9,5.1-4,7.2-9.1,7.2c-16.6-0.1-33.3,0.1-49.9-0.1
			c-18.6-0.2-32-13.7-32-32.2c-0.1-35.1-0.1-70.2,0-105.2c0.1-18.3,13.8-32.1,32.2-32.1c28.1-0.1,56.2-0.1,84.3,0.1
			c3.9,0,4.6-1.1,4.5-4.7c-0.1-38.9-0.1-77.8-0.1-116.7c0-15.8,6.8-23.9,22.5-26.4c3.2-0.5,2.1-2.4,2.1-3.9c0.1-12.8,0-25.6,0-38.4
			c0.1-55.3,36.7-99.6,90.9-110c57.6-11.1,116.8,29.9,126.7,87.7c1.3,7.6,2,15.1,2,22.8c-0.1,12,0.1,23.9-0.1,35.9
			c-0.1,4,0.3,5.8,5.2,6.3c11.3,1.3,19,11,19.5,23c0.2,5,0.1,10,0,15c0,6.8-1.2,8.3-7.5,10.5c-4.9,0.6-7.9-1.8-8.5-7.1
			c-0.5-4.5-0.1-9-0.2-13.4c-0.2-9.3-2.6-11.8-12-11.8c-64.9,0-129.9,0-194.8,0c-2,0-4,0.1-6-0.1c-4.6,0.2-9.3,0-14,0.1
			c-6.3,0.2-8.9,2.8-9.5,9.2c-0.2,1.8-0.1,3.7-0.1,5.5c0,35.4,0,70.8,0,106.2c0,1.2,0.1,2.3,0,3.5c-0.2,3.9,1.7,5.3,5.4,5.2
			c5.1-0.1,10.3-0.2,15.4,0.1c18.3-0.1,36.6,0,54.8,0c6.7,0,7.3-0.6,8-7.3c0.5-5.3,1.1-10.6,1.8-15.8c0.8-5.8,0.3-11.2-1.7-17
			c-6.9-19.9,3-41.2,23.4-47.6c20.4-6.3,41.8,5.6,46.5,26.1c1.7,7.2,1.9,14.6-1.2,21.6c-2.2,4.9-2.6,9.8-1.9,15
			c0.9,6.4,1.6,12.9,2.2,19.3c0.3,4,2.2,5.7,6.4,5.7c23.8-0.1,47.5,0,71.3-0.1c5.4,0,5.8-0.5,5.8-6.1c0-19.8,0-39.6,0-59.3
			c0-2.3-0.1-4.7,0.5-6.9C376.4,243.1,379,241.5,383.7,242.2z"/>
		<path class="st1" d="M484.1,337.2c8.3,2.2,12.8,8,12.8,17.2c0,28.1,0,56.2,0,84.3c0,6.1,0,12.3,0,18.4c0,12.6-6.4,19-18.9,19
			c-70.3,0-140.6,0-210.9,0c-48.2,0-96.4,0-144.6,0c-7,0-8.8,1.3-10.7,7.9c-6.5,0-13.1,0-19.6,0c-1.2-6-3.4-7.8-9.4-7.9
			C70.2,476,57.6,476,45,475.9c-4.4-1.8-5.8-5.7-6.9-9.7c-0.7-2.4-0.7-4.9-0.7-7.4c0-34.7,0-69.4,0-104.2c0-4.9,0.8-9.6,3.3-13.9
			c1.6-2.7,3.6-4.3,6.9-3.9c1,0.1,2,0,3,0c142.6,0,285.1,0,427.7,0C480.2,336.8,482.2,336.5,484.1,337.2z"/>
		<path class="st2" d="M383.7,242.2c-6.1,1.1-7.8,3-7.8,9.4c0,21.6-0.1,43.2,0.1,64.8c0,3.6-0.5,5.2-4.8,5.1
			c-25.4-0.2-50.8-0.2-76.2,0c-3.1,0-4.6-0.4-4.9-4.1c-0.8-9.7-2.1-19.5-3.4-29.2c-0.3-2.2,0.9-3.8,1.7-5.6
			c5.8-13.3,4.7-26.1-4.4-37.4c-9-11.3-21.2-15.4-35.1-12.3c-14,3.1-23,12.1-26.6,26c-2.1,8.3-1.3,16.5,2.7,24.2
			c1.2,2.4,1.5,4.5,1.1,7.1c-1.2,9.4-2.3,18.8-3.2,28.2c-0.2,2.3-0.9,3.1-3.3,3.1c-19.9-0.1-39.9-0.2-59.8-0.2
			c-1.8-1.9-1.6-4.3-1.6-6.6c0-38.3-0.1-76.6,0-114.9c0-4,0-8.1,3.6-10.9c1.7-0.1,3.3-0.2,5-0.2c65.7,0,131.3,0,197,0
			c9.7,0,12.1,2.4,12.1,12c0,4,0.2,8,0,12c-0.3,5.6,2.1,8.8,7.5,10C383.5,229.1,383.6,235.7,383.7,242.2z"/>
		<path class="st3" d="M244.5,36c11.8-2.3,23.5-1.3,35,1.7c43.2,11.3,71.6,48.1,71.8,92.7c0,13.1-0.1,26.3,0.1,39.4c0,3-0.8,4-3.9,4
			c-8.5-0.2-17-0.2-25.4,0c-3.6,0.1-4.9-0.8-4.8-4.7c0.2-12.8,0.1-25.6,0.1-38.4c-0.1-29.3-18.3-52.7-46.6-60.1
			c-33.8-8.8-70.1,15.9-74.1,50.5c-1.7,15.1-0.4,30.2-0.8,45.3c-0.2,8.2,1.1,7.1-7.1,7.2c-1.3,0-2.7-0.1-4-0.1
			c-1.7-1.8-1.4-4-1.4-6.1c0-14.9-0.5-29.9,0.1-44.8c0.8-18.5,6.9-35.4,17.3-50.7c9-13.3,20.6-23.7,34.3-32
			C238,38.2,241.3,37.2,244.5,36z"/>
		<path class="st0" d="M256.3,173.7c-14,0-27.9,0-41.9,0c-1.7,0-3.8,0.6-3.7-2.4c0.4-15.9-1.3-32,0.8-47.8
			c3.1-24,23.5-40.5,47.7-39.4c22.7,1,41.7,19.8,42.8,43.3c0.7,14.4,0.1,28.9,0.3,43.4c0,3-1.5,3-3.7,3
			C284.6,173.6,270.4,173.7,256.3,173.7z"/>
		<path class="st4" d="M484.1,337.2c-3,0-6,0.1-9,0.1c-140.8,0-281.5,0-422.3,0c-9.5,0-13.8,4.2-13.9,14.1c-0.1,11,0,21.9,0,32.9
			c0,24.8,0.1,49.5-0.1,74.3c-0.1,6.7,1.7,12.4,6.1,17.3c-4.1,0.1-8.3,0.2-12.4,0.1c-9.2-0.2-16.3-6.9-16.4-16
			c-0.2-35.9-0.2-71.8,0-107.7c0-8.9,7.4-15.7,16.5-16c5.6-0.2,11.3-0.1,16.9-0.1c142.4,0,284.8,0,427.2,0
			C479.3,336.3,481.9,335.7,484.1,337.2z"/>
		<path class="st5" d="M161.8,188.8c-1.8,4.5-2.1,9.2-2.1,14.1c0.1,39.4,0.1,78.9,0.1,118.3c-6.5,0.1-12.9,0-19.4,0.2
			c-2.7,0.1-3.3-1.1-3.3-3.5c0.1-40,0-79.9,0.1-119.9c0-6.4,3.3-9.3,9.7-9.4C151.8,188.6,156.8,188.7,161.8,188.8z"/>
		<path class="st6" d="M244.5,36c-7.9,5-16.2,9.5-23.4,15.6c-17.9,15-29.2,33.8-34.5,56.5c-2.8,12.3-1.8,24.7-1.9,37.1
			c-0.1,9.5,0,18.9,0,28.4c-6.5,0.1-13,0-19.4,0.2c-2.4,0.1-3.7-0.5-3.6-3.3c0.6-17.9-1.3-35.9,1-53.7c3-23.3,13.7-42.7,31.3-58.3
			c12.8-11.3,27.7-18.7,44.6-21.9C240.6,36.2,242.6,36.2,244.5,36z"/>
		<path class="st6" d="M256.2,321.4c-5.1,0-10.3-0.1-15.4,0c-2.3,0-3.3-0.7-2.9-3.2c1.3-9.7,2.3-19.4,3.6-29
			c0.6-4.5-0.7-8.4-2.7-12.3c-3.5-7-3.5-14.2,1-20.7c4.4-6.4,10.7-10,18.7-9c8.7,1,14.7,5.8,17.5,14.1c1.5,4.5,2,9.7-0.5,13.6
			c-5,7.6-3.4,15.5-2.6,23.5c0.7,6.7,1.6,13.5,2.5,20.2c0.4,2.7-1.1,3-3.2,3C266.8,321.3,261.5,321.4,256.2,321.4z"/>
		<path d="M306.4,397.5c0-8.2-0.1-15.5,0-22.8c0.1-5.4,3-8.6,7.5-8.6c4.5,0,7.4,3.3,7.4,8.7c0.1,7.3,0,14.5,0,22.6
			c6.7-3.9,12.8-7.4,18.9-10.9c5.3-3,9.7-2.3,12,1.9c2.2,4.1,0.8,7.9-4.5,11c-6.1,3.6-12.3,7.2-18.9,11c6.4,3.7,12.4,7.2,18.4,10.6
			c5.8,3.4,7.5,7.4,4.9,11.6c-2.5,4.1-6.7,4.5-12.2,1.4c-6-3.4-12-6.8-18.6-10.6c0,7.9,0,15,0,22.1c0,5.8-2.9,9.3-7.4,9.3
			c-4.6,0-7.5-3.4-7.5-9.2c0-7.1,0-14.2,0-22.2c-5.4,3.1-10.2,5.8-15.1,8.6c-1.9,1.1-3.7,2.2-5.6,3.2c-4.3,2-8.2,0.9-10.3-2.8
			c-2.1-3.7-0.9-7.7,3.1-10.2c3.2-2,6.6-3.8,9.9-5.7c3.3-1.9,6.6-3.8,10.4-6c-6.6-3.9-12.9-7.5-19.1-11.2c-5.2-3.1-6.6-6.9-4.2-11
			c2.3-4,6.6-4.7,11.7-1.9C293.3,389.9,299.4,393.5,306.4,397.5z"/>
		<path d="M206.7,423.5c0,8.2,0,15.4,0,22.5c0,5.4-2.9,8.8-7.3,8.9c-4.6,0.1-7.6-3.4-7.7-9c-0.1-7.1,0-14.3,0-22.3
			c-5.3,3-10.1,5.8-14.9,8.5c-1.9,1.1-3.7,2.2-5.6,3.2c-4.3,2.1-8.2,1-10.4-2.7c-2.1-3.6-1-7.8,3.1-10.2c6.5-3.9,13.2-7.7,20.4-11.8
			c-7-4-13.6-7.7-20.1-11.6c-5.5-3.3-5.9-9.9-1-13c3-2,6-1.4,8.9,0.3c6.3,3.7,12.6,7.3,19.6,11.3c0-5.4,0-10.1,0-14.8
			c0-13,1.7-16.6,7.6-16.5c5.9,0.1,7.4,3.5,7.4,16.7c0,4.6,0,9.2,0,14.6c7-4,13.4-7.7,19.8-11.4c3.6-2.1,7-2.2,10,0.8
			c3.5,3.5,2.7,8.9-2,11.8c-6.5,4-13.1,7.7-20.2,11.8c6.7,3.9,12.9,7.5,19.1,11.1c5.1,3,6.5,7,4.1,11.1c-2.4,4-6.7,4.7-11.8,1.8
			C219.7,431,213.5,427.5,206.7,423.5z"/>
		<path d="M69.6,410.5c-7-4.1-13.6-7.8-20.1-11.7c-3.1-1.8-5-4.5-4.1-8.3c0.8-3.4,3.1-5.4,6.6-5.9c2.3-0.3,4.2,0.7,6.1,1.8
			c6.1,3.5,12.3,7.1,19.1,11c0-7.8,0-14.8,0-21.9c0-6.2,2.9-9.5,7.8-9.4c4.6,0.2,7.1,3.4,7.1,9.4c0,7,0,13.9,0,21.9
			c6.1-3.5,11.8-6.7,17.4-10c6.6-3.8,10.9-3.6,13.5,0.6c2.8,4.6,0.9,8.4-6.1,12.4c-5.6,3.2-11.2,6.5-17.1,10
			c6.4,3.7,12.4,7.1,18.4,10.6c5.8,3.4,7.4,7.4,4.9,11.6c-2.5,4.2-6.8,4.6-12.6,1.2c-5.8-3.3-11.7-6.7-18.3-10.5c0,7.9,0,15,0,22
			c0,5.9-2.7,9.3-7.3,9.4c-4.7,0.1-7.7-3.5-7.7-9.6c0-7,0-13.9,0-21.7c-5.5,3.1-10.4,5.9-15.4,8.7c-1.9,1.1-3.7,2.3-5.6,3.2
			c-4,1.8-7.9,0.5-9.9-3c-2-3.5-1.1-7.6,2.8-9.9C55.5,418.5,62.3,414.8,69.6,410.5z"/>
		<path d="M443.5,410.5c6.9,4,13.1,7.5,19.2,11.1c5,3,6.5,7.2,4.1,11.1c-2.4,3.9-6.7,4.6-11.8,1.7c-6.1-3.5-12.3-7-19-10.9
			c0,8.3,0,15.7,0,23.2c0,3.9-1.8,6.7-5.6,7.9c-3.2,1-5.9-0.3-7.9-2.8c-1.5-1.8-1.4-4-1.4-6.2c0-7.1,0-14.2,0-22.1
			c-6.8,3.9-13,7.4-19.1,11c-2.4,1.4-4.8,2.3-7.6,1.6c-2.8-0.8-4.6-2.7-5.1-5.5c-0.6-3.5,0.5-6.3,3.6-8.1
			c6.7-3.9,13.4-7.8,20.6-11.9c-6.6-3.8-12.8-7.4-18.9-11c-5.4-3.1-6.9-7.2-4.4-11.4c2.4-3.9,6.6-4.5,11.8-1.6
			c6.2,3.5,12.3,7.1,19.1,11c0-8,0-15.2,0-22.5c0-5.6,2.7-8.8,7.2-8.9c4.7-0.1,7.7,3.2,7.7,9c0.1,7.1,0,14.3,0,22.3
			c6.7-3.9,13-7.4,19.2-11.1c2.5-1.5,5.1-2.4,8-1.2c2.7,1.1,4.3,3.2,4.6,6c0.4,3.3-1.2,5.8-4,7.5
			C457.3,402.6,450.7,406.4,443.5,410.5z"/>
	</g>
</g>
</svg>
