<?xml version="1.0" encoding="utf-8"?>
<!-- Generator: Adobe Illustrator 26.2.0, SVG Export Plug-In . SVG Version: 6.00 Build 0)  -->
<svg version="1.1" id="Calque_1" xmlns="http://www.w3.org/2000/svg" xmlns:xlink="http://www.w3.org/1999/xlink" x="0px" y="0px"
	 viewBox="0 0 512 512" style="enable-background:new 0 0 512 512;" xml:space="preserve">
<path d="M512,228v11c-0.3,1.1-0.7,2.2-1,3.3c-5,22.2-18.5,36.5-40.4,42.2c-5.9,1.5-12.1,1.4-18.8,2.1v5.7c0,43.1,0.5,86.3-0.1,129.4
	c-0.6,38.6-19,66.5-54,82.8c-8,3.7-17.1,5-25.7,7.5H140c-6.1-1.5-12.3-2.6-18.3-4.5c-36.6-11.8-61.4-45.9-61.5-85.2
	c-0.2-43.3,0-86.6,0-129.9V286c-2.7,0-4.8,0-6.9,0C30,285.8,9.5,270.7,2.5,248.6c-1-3.1-1.7-6.4-2.5-9.6v-11
	c4.4-12.9,13.6-18.2,26.9-17.1c4.3,0.4,8.7,0,13,0h20.2c0-4.9-0.2-9.2,0.1-13.5c0.2-3-1.1-4.2-3.7-5.4
	c-16.8-7.8-26.1-20.9-26.7-39.5c-1.4-40.8,29.5-78.3,69.9-83.3c17.6-2.2,35.6-1,53.4-1.3c2.1,0,4.3,0,6.3,0c0.5-1.7,0.8-2.8,1.1-3.9
	c7.1-25.4,22.3-44.2,46.1-55.3c8.6-4,18.2-5.8,27.4-8.7h44c0.9,0.4,1.8,0.7,2.8,0.9c35.2,6.3,58.4,26.5,69.9,60.2
	c0.7,2.2,1.3,4.4,2,6.8c15.5,0,30.6,0,45.8,0c40.2,0.1,73.7,27,82.2,66.2c4.9,22.6,0.5,47.1-26.9,58.8c-0.9,0.4-1.5,1.1-1.7,2
	c-0.1,5.2-0.1,10.5-0.1,16c11.6,0,22.4,0.5,33.2-0.1C498.5,210.1,507.6,215.2,512,228z M256,180.8L256,180.8
	c60-0.1,120-0.1,179.9-0.1c19.6,0,32-13.1,31.3-32.7c-1.5-36.4-31.4-65.1-67.8-65.1c-95.6-0.1-191.2-0.1-286.9,0
	c-27.8-0.1-52.8,16.9-62.8,42.9c-2.7,7.2-4.2,14.7-4.7,22.3c-1.3,19.6,11.5,32.7,31.2,32.7C136.1,180.9,196,180.9,256,180.8z
	 M436.5,196.1H75.4v217.7H113v-6.1c0-50.6-0.1-101.3,0.1-152c0-20.7,16.8-37.4,37.5-37.4c3.7,0,7.4,0.6,10.9,1.6
	c16.1,4.8,26.6,19.2,26.6,37c0.1,50.3,0.1,100.7,0,151v5.8h30.2v-6.9c0-48.8,0-97.6,0-146.5c0-3.2,0.2-6.3,0.5-9.5
	c2.7-21.9,24.6-36.8,46.1-31.4c17.7,4.5,28.7,19.2,28.8,38.9c0.1,49.8,0.1,99.7,0,149.5v5.9h30.2V408c0-31.2,0-62.3,0-93.5
	c0-20.2-0.3-40.3,0.1-60.5c0.4-21,20-37.7,40.8-35.4c20.2,2.2,34.2,17.6,34.2,38.2c0.1,50.3,0.1,100.7,0,151v6.1h37.5L436.5,196.1z
	 M75.8,429.4c0.2,2.2,0.2,4,0.5,5.8c6.1,35.8,37.2,61.9,73.5,61.8c70.7,0.1,141.3,0.1,212,0c24.5,0,44.5-9.9,59.6-29.3
	c8.7-11,13.9-24.3,14.8-38.3L75.8,429.4z M278.7,414v-5.5c0-49.8,0-99.7,0-149.5c0-2.5-0.2-5-0.6-7.4c-1.7-8.9-8.7-15.9-17.6-17.6
	c-14.9-2.8-27.1,7.8-27.1,24.1c-0.1,50.5-0.1,101,0,151.5c0,1.4,0.2,2.9,0.3,4.5L278.7,414z M173.1,414v-18.5c0-46.2,0-92.3,0-138.5
	c0-11.6-6.8-20.5-17-22.9c-14.8-3.5-28,7.2-28.1,22.9c-0.1,51-0.1,102,0,153c0,1.3,0.2,2.6,0.3,4L173.1,414z M384,414v-42.5
	c0-38.2,0-76.3,0-114.5c0-11.7-7.1-20.8-17.6-23c-14.8-3.1-27.5,7.4-27.5,23c-0.1,51-0.1,102,0,153c0,1.3,0.2,2.5,0.3,4L384,414z
	 M175,68c7.1,0,13.3,0.2,19.4-0.1c2.1-0.3,4-1.4,5.2-3.2c15.8-30.1,43.1-39.8,74.6-32.4c17.6,4.1,29.5,16,37.9,31.7
	c0.9,1.6,2.8,3.7,4.3,3.8c6.6,0.4,13.3,0.2,20.4,0.2c-0.5-2-0.8-3.6-1.4-5.1c-8.8-24-25.3-40.2-50.2-45.4
	c-13.5-2.8-27.8-2.5-41.7-2.1c-9,0.2-17.8,1.9-26.2,5c-21.8,8.2-35.4,24.5-42.2,47.5L175,68z M452,271c3.4,0,6.2,0.1,9,0
	c19-1,35.2-17.4,35.9-36.4c0.2-6.1-2-8.6-8.1-8.6c-9.6-0.1-19.3,0-29,0H452V271z M59.9,225.9c-12.2,0-24.1,0-36.1,0
	c-7,0-9.2,2.5-8.7,9.5c1.6,22.3,22.2,38.6,44.8,35.1V225.9z M296.1,67.6c-6-15.3-25.4-24.3-47.3-22.5c-15.6,1.3-31.4,14.9-32.5,22.5
	H296.1z"/>
<path d="M194.3,98c11.2,0,20.4,8.7,21.1,19.9c0.2,4.7-2.2,8.1-6.3,8.8s-7.4-1.9-8.4-6.7c-0.7-3.8-2-6.9-6.4-6.9s-5.9,2.7-6.5,6.7
	c-0.7,4.7-4.2,7.4-8.2,6.9c-4.1-0.5-6.7-3.8-6.6-8.6C173.2,107.1,183,97.9,194.3,98z"/>
<path d="M317.5,98c11.4-0.1,21.2,9,21.5,20c0.1,4.8-2.3,8.1-6.5,8.7s-7.7-2.1-8.4-6.7c-0.6-4-2.1-6.8-6.4-6.8s-5.8,3-6.5,6.8
	c-0.9,4.8-4.2,7.4-8.3,6.8c-4.3-0.6-6.8-4.2-6.4-9.2C297.5,106.6,306.5,98.1,317.5,98z"/>
<path d="M256.2,149.5c-8.2-0.3-14.5-2.9-19.6-8.2c-3.5-3.6-3.7-7.9-0.6-11s7-3,10.7,0c7.1,5.7,11.6,5.7,18.5,0.1
	c3.7-3.1,7.7-3.1,10.7-0.1s2.9,7.4-0.5,11.1C270.5,146.6,263.5,149.6,256.2,149.5z"/>
</svg>
