<?xml version="1.0" encoding="utf-8"?>
<!-- Generator: Adobe Illustrator 26.2.0, SVG Export Plug-In . SVG Version: 6.00 Build 0)  -->
<svg version="1.1" id="Calque_1" xmlns="http://www.w3.org/2000/svg" xmlns:xlink="http://www.w3.org/1999/xlink" x="0px" y="0px"
	 viewBox="0 0 512 512" style="enable-background:new 0 0 512 512;" xml:space="preserve">
<path d="M512,431.2c-0.3,1.1-0.8,2.2-1,3.3c-4.5,18.4-19.9,30.9-38.8,31.5c-0.5,0-1,0-1.5,0c-142.7,0-285.4,0-428.1,0
	c-19.2,0-34.9-11.6-39.9-29.4c-1.1-3.9-1.6-8.2-1.6-12.3C1,326.8,1,229.4,1,131.9c0-22.8,15.3-39.7,38-41.5
	c8.6-0.7,17.3-0.6,25.9,0.3C80.2,92.4,91,100.9,97.1,115c7.1,16.3,13,20.3,30.8,20.3c2.5,0,5,0,8.1,0c0.1-2,0.3-3.8,0.3-5.5
	c0-15,0-29.9,0-44.9c0.1-24.3,15.8-39.9,40.1-39.9c83.5,0,167,0,250.4,0c24.2,0,40.1,15.8,40.1,39.9c0,14.8,0,29.6,0,44.4
	c0,1.8,0,3.6,0,5.7c2.3,0.2,4.1,0.3,5.9,0.4c19.5,1.1,33.8,13.1,38.3,32c0.2,0.8,0.6,1.5,0.9,2.2c0,28.3,0,56.6,0,84.8
	c-1.6,1.3-3.1,3.1-4.9,3.9c-5.2,2.1-10-1.7-10-8.1c-0.1-16.3,0-32.6,0-48.9c0-1.8,0-3.6,0-6c-2.5,0-4.6,0-6.7,0
	c-94,0-187.9,0-281.9,0c-2.1,0-4.4,0.1-6.4-0.5c-3.9-1-5.8-3.9-5.4-7.9c0.4-3.8,2.7-6,6.4-6.5c1.8-0.2,3.7-0.1,5.5-0.1
	c78.8,0,157.7,0,236.5,0c2.1,0,4.2,0,6.7,0c0.1-2.1,0.3-3.7,0.3-5.3c0-29.9,0-59.9,0-89.8c0-16.2-9.1-25.3-25.4-25.3
	c-83.3,0-166.7,0-250,0c-16.4,0-25.3,8.9-25.3,25.2c0,29.9,0,59.9,0,89.8c0,1.6,0.2,3.2,0.3,5.4c5.8,0,11.3,0,16.7,0
	c5.6,0.1,8.9,2.7,9,7.1c0.2,4.6-3.4,7.8-9,7.8c-27.3,0.1-54.6,0-81.8,0c-16.7,0-25.4,8.8-25.4,25.6c0,50.1,0,100.1,0,150.2
	c0,1.7,0.1,3.3-0.1,5c-0.4,4.3-2.9,6.7-7.1,6.9c-4,0.2-6.6-2.1-7.5-6c-0.4-1.6-0.3-3.3-0.3-5c0-50.6,0-101.1,0-151.7
	c0-24.3,15.6-40,39.9-40c14.8,0,29.6,0,44.4,0c1.8,0,3.6,0,5.7,0c0-10.2,0-19.9,0-30.2c-4.3,0-8.2,0-12.2,0
	c-18.9-0.2-32.7-9.7-39.6-27.2c-4.7-12-13-17.9-25.9-18c-7-0.1-14-0.2-20.9,0.6c-12.1,1.5-20.9,11.8-21.4,24c0,1,0,2,0,3
	c0,97,0,193.9,0,290.9c0,17.5,12.6,29,30,27c0-4.2,0-8.4,0-12.7c0-9-0.1-18,0-26.9c0.1-5.3,3.3-8.7,7.7-8.5c4.3,0.1,7.1,3.4,7.2,8.5
	c0.1,6.7,0,13.3,0,20c0,6.5,0,12.9,0,20c2,0.1,3.8,0.2,5.5,0.2c134.2,0,268.4,0,402.7,0c17.3,0,27.8-10.6,27.8-28.1
	c0-44.9,0-89.8,0.1-134.7c0-2.7,0.9-6.1,2.7-8.1c3.3-3.8,8.3-2.2,12.2,3.3C512,332.7,512,381.9,512,431.2z M496.5,180.2
	c2.7-18-13.2-33.6-29.1-29.1c0,9.7,0,19.4,0,29.1C477.4,180.2,487,180.2,496.5,180.2z"/>
<path d="M301.9,97.7c32.3,0,64.5-0.1,96.8,0c12,0,20.9,7.7,22.7,19c2.1,13-7.5,25.1-20.7,25.9c-0.8,0.1-1.7,0-2.5,0
	c-64.5,0-129,0-193.5,0c-16.4,0-27.4-15.1-22-30c3.3-9.2,11.5-14.9,22-14.9C237.1,97.7,269.5,97.7,301.9,97.7z M301.4,112.7
	c-31.1,0-62.2,0-93.2,0c-1.7,0-3.4-0.1-5,0.1c-4.2,0.6-6.6,3.1-6.6,7.4s2.5,6.7,6.6,7.5c1.5,0.3,3,0.1,4.5,0.1c62.7,0,125.3,0,188,0
	c1.5,0,3,0.1,4.5-0.1c4.2-0.6,6.7-3.3,6.7-7.4s-2.4-6.8-6.6-7.4c-1.6-0.2-3.3-0.1-5-0.1C363.9,112.7,332.6,112.7,301.4,112.7z"/>
<path d="M392,360.7c14.8,0,29.6-0.1,44.4,0c12.2,0.1,21.5,5.5,27.1,16.4c5.2,10.1,4.6,20.3-1.5,29.9c-5.9,9.3-14.8,13.8-25.6,13.9
	c-29.8,0.2-59.5,0.3-89.3,0c-16.6-0.2-28.5-11.3-30.4-27.3c-1.7-13.9,7.9-27.8,22-31.6c3.5-0.9,7.2-1.1,10.8-1.2
	C363.8,360.7,377.9,360.7,392,360.7L392,360.7z M391.8,375.7c-14.1,0-28.3-0.1-42.4,0.1c-2.9,0-6.1,0.3-8.7,1.4
	c-6.5,2.6-10.1,9.6-8.7,16.2c1.6,7.8,7.4,12.5,16.3,12.5c29.1,0.1,58.2,0.1,87.3,0c2.6,0,5.3-0.6,7.7-1.6c6.4-2.8,9.9-9.8,8.5-16.4
	c-1.6-7.4-7.3-12.1-15.5-12.2C421.4,375.6,406.6,375.7,391.8,375.7z"/>
<path d="M248.3,291.2c-0.1-13.2,6.1-21.1,19.2-23c6.8-1,14-1,20.9-0.4c17.3,1.7,25.2,14.1,20.6,31.8c-4.1,16.1-18.1,26.4-33.4,24.7
	C260.3,322.5,248.4,308.1,248.3,291.2z M279.2,282.1c0,0.1,0,0.2,0,0.3c-1.5,0-3,0-4.5,0c-11.3,0.3-14.2,4.5-10.4,15.3
	c2.1,6,6,10.4,12.4,11.5c5.7,1,10.9-1,13.8-5.8c2.3-3.8,3.6-8.4,4.4-12.9c0.7-4.1-1.5-7-6-7.5C285.8,282.7,282.5,282.4,279.2,282.1z
	"/>
<path d="M217,261.7c11-0.1,20.6,8.8,21.4,19.7c0.4,5-2.2,8.6-6.5,9.1c-4.4,0.5-7.6-2-8.4-7.2c-0.6-3.8-2.4-6.4-6.3-6.5
	c-4.1-0.1-6.1,2.6-6.7,6.6c-0.8,5-4.3,7.7-8.5,7s-6.8-4.4-6.3-9.3C196.9,270.3,206.2,261.7,217,261.7z"/>
<path d="M341.2,262.2c11.4,0,21,9,21.2,20.1c0.1,5-2.2,8-6.4,8.5c-4.2,0.5-7.5-2-8.3-6.7c-0.6-3.4-1.6-6.1-5.4-6.8
	c-4-0.7-6.4,1.4-7.6,6.5s-4.2,7.5-8.7,6.8c-4-0.6-6.3-3.8-6.1-8.3C320.3,271.2,329.7,262.2,341.2,262.2z"/>
</svg>
