<?xml version="1.0" encoding="utf-8"?>
<!-- Generator: Adobe Illustrator 26.2.0, SVG Export Plug-In . SVG Version: 6.00 Build 0)  -->
<svg version="1.1" id="Calque_1" xmlns="http://www.w3.org/2000/svg" xmlns:xlink="http://www.w3.org/1999/xlink" x="0px" y="0px"
	 viewBox="0 0 512 512" style="enable-background:new 0 0 512 512;" xml:space="preserve">
<path d="M512,148.6c-1.4,4.8-1.9,9.9-4.3,14.1c-4.2,7.4-8.8,14.9-14.4,21.2c-8.7,9.8-18.4,18.8-27.7,28c-2,2-2.5,3.5-1.4,6.4
	c4,10.6,1.9,20.5-6,28.5s-17.8,10-28.4,6.2c-3.1-1.1-4.8-0.5-6.9,1.6c-11.3,11.5-22.7,22.9-34.2,34.2c-2.1,2-2.4,3.6-1.4,6.4
	c4,10.6,1.9,20.4-6,28.5s-17.9,10.1-28.4,6.1c-3.8-1.5-5.4,0.2-7.6,2.4c-57.9,58-115.9,116-173.8,173.9c-2.1,2.1-4.5,3.9-6.8,5.8
	h-26.9c-2.8-0.2-5.6-0.7-8.4-0.7c-33.2-0.7-66.5-1.3-99.8-2c-16.7-0.4-25.5-9.1-25.8-25.7C2.8,440.8,2,398.1,0.9,355.4
	c-0.3-5.2,1.7-10.2,5.5-13.7c57.9-57.8,115.8-115.6,173.7-173.5c2.9-2.9,3.9-5.1,2.4-9.3c-3.5-10.3-1.1-19.9,6.7-27.4
	s17.6-9.7,28.1-5.8c2.7,1,4.4,0.9,6.5-1.2c11.4-11.7,23-23.1,34.5-34.6c1.8-1.8,2.5-3.2,1.5-6c-4-10.8-2.3-20.8,6-29
	S284,44.7,294.9,49c2.8,1.1,4.2,0.2,6-1.6c9.1-9.2,18.3-18.4,27.5-27.5C354-5.6,389.3-5.6,414.9,20c26,26,51.9,52,78,77.9
	c9.7,9.7,16.4,20.8,18.4,34.5c0.1,0.4,0.5,0.8,0.8,1.2L512,148.6z M30.4,340.7c5.6-0.4,11.7-1.2,17.7-1.3
	c14.4-0.2,23.5,9.1,22.7,23.4c-0.4,7.5-1.4,14.9-1.9,22.4c-0.4,5.8,2,8,7.7,7.5c7.4-0.6,14.9-1.4,22.3-2.1
	c13.8-1.3,24.7,9.5,23.4,23.3c-0.7,7.3-1.3,14.6-2,21.9c-0.6,6.6,1.4,8.8,8.2,8.3c6.5-0.5,12.9-1.4,19.4-1.8
	c18.1-1.3,27.1,7.9,25.6,26.1c-0.4,4.9-0.9,9.8-1.3,14.3l163.8-163.7L194.1,177L30.4,340.7z M309,59.8c7.1,7,13.6,13.3,20,19.9
	c4.3,4.4,3.9,10.2-0.8,12.6c-3.8,1.9-7,0.6-9.9-2.2L295,66.8c-3.2-3.2-6.8-5.4-11.5-4.7s-8.2,3.2-9.6,7.7c-1.8,5.6,0,10.2,4.2,14.4
	c50.2,50,100.3,100.1,150.4,150.3c1.4,1.4,2.9,2.7,4.6,3.8c5.5,3.4,12.6,1.7,16-3.8c0,0,0,0,0-0.1c3.4-5.6,2.3-11-3.6-16.9
	c-33.9-33.9-67.7-67.8-101.6-101.7c-1.2-1.1-2.4-2.3-3.5-3.6c-2.8-3.5-2.7-7.5,0.2-10.3s6.9-2.8,10.4,0c1.3,1.1,2.4,2.3,3.6,3.4
	c31.4,31.4,62.8,62.8,94.2,94.3c1.1,1.3,2.2,2.7,3.1,4.2c11.7-11.5,23.2-21.7,33.4-33c16.5-18.4,15.8-42.8-1.6-60.6
	c-26.7-27.2-53.6-54.1-80.8-80.8c-15.9-15.6-39.6-18.4-55.5-5.6C333.8,34.5,322,47.5,309,59.8z M413.5,241.9l-142-142.1l-38,38
	l91.6,91.7c5.7,5.7,6.5,9.5,3,13.2s-7.9,3-13.6-2.7c-31.7-31.6-63.3-63.2-95-94.9c-1.6-1.7-3.4-3.2-5.3-4.5
	c-3.8-2.6-8.9-2.6-12.7,0.1c-3.9,2.5-6.2,6.6-5,11.1c1,3.6,2.8,7,5.4,9.7c49.8,50,99.6,99.9,149.6,149.7c1.4,1.4,2.9,2.7,4.6,3.8
	c5.5,3.4,12.7,1.7,16.1-3.8c3.3-5.4,2.5-10.8-2.8-16.2c-7.9-8.1-16-16-24-24c-2.7-2.5-5.2-5.2-7.5-8c-2.5-3.2-2.1-6.6,0.7-9.5
	s6.2-3,9.5-0.7c1.3,1,2.6,2.1,3.7,3.4c8,8,16,16,23.6,23.7C388.3,267,401,254.3,413.5,241.9L413.5,241.9z M16.3,357.2
	c-0.1,0.8-0.2,1.6-0.3,2.5c0.4,19.6,0.7,39.2,1.3,58.9c0.3,2.2,1.3,4.3,2.9,5.9c22.6,22.8,45.3,45.5,68.1,68.1c2,1.8,4.6,3,7.3,3.1
	c17.8,0.6,35.6,0.9,53.4,1.2c2.1,0,4.2,0,6.7,0c1-11.3,2.1-22.2,2.9-33.1c0.4-4.9-1.9-7-7-6.6c-8.3,0.5-16.6,1.7-24.8,2
	c-13.6,0.4-22.8-9.8-21.5-23.4c0.7-7.5,1.4-14.9,2.1-22.4c0.5-5.7-2.2-8.3-8-7.7c-6.4,0.7-12.9,1.2-19.3,1.8
	c-18.5,1.5-27.9-8.2-25.8-26.5c0.7-6.3,1.3-12.6,1.7-18.9c0.4-6.1-1.5-8.1-7.4-7.7C37.9,355.1,27.3,356.2,16.3,357.2z M18.7,445.5
	c0,12.8-0.1,26.2,0.1,39.7c0.1,5.8,3.2,8.8,9.1,9c11,0.4,21.9,0.6,32.9,0.8c2.5,0.1,5.1,0,7.4,0L18.7,445.5z"/>
<path d="M213.1,326.6c-14.8-0.4-26.7-12.4-26.8-27.3c-0.1-5.2,2.4-8.5,6.7-8.9s7.2,2.4,8,7.6c1.4,9.3,4.6,12.6,13.4,13.9
	c5.6,0.8,8.5,3.6,8.1,8S218.8,326.8,213.1,326.6z"/>
<path d="M169.1,249.7c1.6,1.2,4.3,2.4,5.2,4.4s0.9,5.6-0.3,7.3c-2.8,3.7-6,7-9.7,9.9c-3,2.4-6.6,2-9.4-0.9c-2.6-2.7-3.2-6.1-0.8-9
	C158,256.9,161.5,251.5,169.1,249.7z"/>
<path d="M263.3,344c-0.8,2.2-0.9,3.8-1.7,4.6c-3.1,3.6-6.5,7-10.1,10.2c-3.1,2.6-6.7,1.8-9.4-1.1c-2.5-2.7-2.9-6.2-0.5-9.1
	c2.9-3.6,6.2-6.9,9.9-9.6c1.7-1.2,5.2-1.2,7.3-0.3S262,342.3,263.3,344z"/>
</svg>
